<svg width="32" height="32" viewBox="0 0 32 32" fill="none" xmlns="http://www.w3.org/2000/svg">
<g clip-path="url(#clip0_807_575)">
<path fill-rule="evenodd" clip-rule="evenodd" d="M15.1112 0.970362C15.3016 0.923674 15.5099 0.939269 15.6982 0.999716C15.8935 1.06246 16.0756 1.17665 16.2022 1.32167L16.2582 1.38551L16.2662 1.47054C16.3602 2.41374 16.4228 3.3464 16.4584 4.27924C16.4938 5.20804 16.5024 6.13942 16.4887 7.08354L16.4869 7.21232L16.3881 7.29029C16.3348 7.3322 16.2701 7.3755 16.1997 7.41283C16.2758 7.4808 16.3372 7.56766 16.3784 7.67434C17.1492 8.23725 17.9339 8.76687 18.7181 9.29576C19.5922 9.88435 20.4661 10.4743 21.3195 11.1087C21.713 11.3086 22.1362 11.6335 22.5443 11.9472C22.9112 12.2304 23.2667 12.5032 23.5497 12.6444L23.6438 12.6914L23.6795 12.7933C23.7964 13.1267 23.632 13.3095 23.4709 13.4879C23.4368 13.5256 23.4025 13.5635 23.385 13.5904C23.2389 13.8114 23.0841 14.0185 22.9244 14.2149C22.767 14.408 22.6001 14.596 22.4279 14.7794C22.2676 14.9953 22.1311 15.2344 21.9948 15.4732C21.838 15.7481 21.6806 16.0236 21.4848 16.2772L21.4749 16.2895C21.1365 16.6757 20.8688 17.125 20.6018 17.5739C20.3385 18.0162 20.0746 18.4592 19.7409 18.8575L19.7338 18.8648C19.4821 19.1426 19.2691 19.459 19.0563 19.7751C18.9159 19.9833 18.7754 20.1926 18.6323 20.3818C18.5374 20.5287 18.4281 20.6567 18.3191 20.7841C18.1664 20.9635 18.0133 21.1423 17.9394 21.3438L17.9218 21.392L17.8881 21.4297C17.7424 21.5925 17.5367 21.6931 17.3246 21.7237C17.1128 21.7542 16.8886 21.7155 16.7057 21.6002L16.6768 21.5818L16.6574 21.562L15.7421 20.9841C15.415 20.7772 15.11 20.5852 15.0369 20.543L14.8619 20.4365C14.0272 19.9317 13.1881 19.4242 12.4498 18.7584C12.0896 18.5468 11.7751 18.2829 11.4623 18.0205C11.3002 17.8847 11.1379 17.7484 10.9732 17.6235L10.8402 17.5225L10.8746 17.3568C10.9998 16.7555 11.357 16.29 11.7141 15.8237C11.9255 15.548 12.1376 15.2713 12.283 14.9864C12.537 14.4791 14.5088 11.6123 15.0889 10.769L15.2401 10.5485C15.3362 10.3799 15.5695 10.3768 15.8924 10.5041C16.2819 10.6581 16.9358 10.9997 17.6012 11.4013C18.2678 11.8038 18.953 12.2702 19.4064 12.6731C19.9111 13.1218 20.1535 13.5438 19.8965 13.8487L19.8764 13.8705C19.7397 13.9999 19.6306 14.1949 19.5207 14.3922C19.3987 14.6081 19.2764 14.8271 19.0993 15.0137C18.7479 15.4197 18.4743 15.8927 18.2013 16.3648C17.8736 16.931 17.5464 17.4972 17.0756 17.982C17.0417 18.0341 17.0012 18.0768 16.9564 18.1102C16.8633 18.1787 16.7539 18.2096 16.6452 18.2081C16.546 18.2063 16.4448 18.1779 16.3576 18.1283C16.2884 18.0887 16.2255 18.0354 16.1768 17.971C15.9805 17.7597 15.7113 17.6067 15.4443 17.4554C15.0299 17.2205 14.6195 16.9871 14.3659 16.5211L14.3216 16.4392L14.3377 16.3465C14.4114 15.9279 14.9901 15.1325 15.5167 14.4078C15.8108 14.0037 16.0884 13.6217 16.2338 13.3733C16.2787 13.1759 16.3979 13.0711 16.5499 13.0346C16.67 13.0057 16.8028 13.0328 16.9205 13.0966C17.0197 13.1498 17.1148 13.2324 17.1823 13.3276C17.3138 13.5111 17.3563 13.7413 17.2063 13.9449C16.7409 14.6682 16.2405 15.422 15.7575 16.1505L15.6478 16.316C15.8148 16.4618 16.0088 16.584 16.2028 16.7059C16.3594 16.8043 16.517 16.9033 16.6695 17.0192C16.6767 17.0247 16.6845 17.0274 16.6925 17.0274C16.7525 16.9427 16.8258 16.8364 16.9079 16.7163C17.0696 16.3393 17.2779 15.7024 17.5604 15.2779L18.0116 14.6037C18.0954 14.329 18.2595 14.1245 18.4223 13.9215L18.4652 13.868C17.9355 13.4266 17.3582 13.0344 16.7832 12.6443C16.5635 12.4952 16.3439 12.3462 16.1198 12.1893L15.6717 12.8818C14.7838 14.2571 13.8939 15.6357 12.89 16.9458C13.8292 17.5979 14.7692 18.2766 15.7082 18.955L16.2253 19.3282C16.393 19.4114 16.5352 19.5248 16.6767 19.6372C16.8076 19.7415 16.939 19.8458 17.075 19.9047C17.5032 19.3204 17.9226 18.735 18.3274 18.1489C18.7695 17.5095 19.2011 16.8616 19.6176 16.2035L19.6212 16.197C19.8545 15.8483 20.0806 15.5285 20.3062 15.209C20.7091 14.6387 21.1123 14.0679 21.4641 13.4767C21.5112 13.3541 21.5679 13.2393 21.6373 13.1323L21.7004 13.0425C21.3391 12.7573 20.6282 12.2399 19.8206 11.6647C18.4629 10.6981 16.8472 9.57863 16.1279 9.09992C16.0818 9.07947 16.0429 9.05553 16.0039 9.03131C15.9889 9.02196 16.0429 8.93317 16.0248 8.94711C15.741 9.38895 15.4576 9.80079 15.1752 10.212C14.8333 10.7096 14.4911 11.2075 14.1725 11.7186L14.1594 11.7398L14.1403 11.7598C13.8075 12.1101 13.553 12.5376 13.2989 12.9648C13.0338 13.41 12.7684 13.8559 12.4049 14.244C12.0392 14.823 11.6136 15.3546 11.1886 15.8856C10.7584 16.4233 10.3275 16.9615 9.96257 17.5524L9.94435 17.5773C9.88311 17.6546 10.273 18.0183 10.7748 18.4389C11.243 18.8311 11.8232 19.2495 12.2854 19.5828C12.6337 19.8339 12.918 20.0388 13.0531 20.1601C13.3964 20.4042 13.7158 20.6688 14.0344 20.9332C14.4292 21.2605 14.8241 21.5881 15.2489 21.8618C15.3307 21.9136 15.5423 22.1226 15.7368 22.3305C15.926 22.5322 16.1113 22.7491 16.1632 22.8423L16.1721 22.8598C16.3878 23.3235 15.8954 23.738 15.5775 24.0054L15.4093 24.1538L15.353 24.1718C15.186 24.2242 14.5294 23.7714 13.7594 23.1666C12.6167 22.2694 11.1249 21.0262 10.8363 20.7643C10.1768 20.3354 9.60374 19.8121 9.03128 19.2883C8.67283 18.9602 8.31383 18.632 7.95109 18.3417L7.88457 18.2884L7.86163 18.2063C7.72513 17.7165 8.03752 17.387 8.33187 17.0767C8.42231 16.9813 8.51114 16.8876 8.56997 16.8006L8.57266 16.7978C9.01084 16.1745 9.42814 15.5442 9.84436 14.9148C10.5375 13.8676 11.2307 12.8201 11.9968 11.8346C12.5678 11.0418 13.0274 10.4095 13.4825 9.783L14.1337 8.88666C14.2532 8.67093 14.401 8.49023 14.5481 8.31118C14.7148 8.10783 14.881 7.90503 14.9754 7.67159C15.0179 7.53804 15.0996 7.43906 15.2011 7.36944C15.2565 7.33129 15.3168 7.3034 15.379 7.28377C15.3567 7.24727 15.3374 7.20608 15.3217 7.15976L15.3118 7.12243C14.9473 5.19529 14.8597 3.64019 14.7491 1.67508L14.7398 1.6438C14.698 1.49925 14.7094 1.3667 14.7617 1.25416C14.8161 1.1395 14.9086 1.052 15.027 0.999257L15.1112 0.970362ZM13.2455 24.3071L13.3335 24.3035C13.5472 24.2897 13.7853 24.2748 13.9402 24.5554L13.9763 24.6205L13.9736 24.695C13.9554 25.1927 13.8138 25.6483 13.6722 26.1041C13.5592 26.4676 13.4458 26.8321 13.4069 27.2L13.4024 27.2406L13.3887 27.2744C13.2898 27.5161 13.1125 27.6107 12.9207 27.6078C12.8381 27.6069 12.7561 27.5845 12.6809 27.5476C12.6123 27.514 12.5468 27.4665 12.4912 27.411C12.3184 27.2389 12.217 26.9709 12.3147 26.717C12.4158 26.4072 12.5064 26.0906 12.5967 25.7753C12.7218 25.3374 12.8475 24.8993 12.9977 24.48L13.0613 24.3028L13.2455 24.3071ZM16.1405 24.2293C16.3438 24.1952 16.528 24.2265 16.7103 24.2572L16.8937 24.2883L16.9525 24.407C17.1045 24.7129 17.0773 25.0137 17.0511 25.3071L17.0448 25.3725C17.089 25.7254 17.2396 27.5529 17.2738 28.9494C17.2947 29.7964 17.2647 30.511 17.1304 30.7266C16.99 30.9642 16.7842 30.9776 16.5868 30.9904C16.537 30.9931 16.4877 30.9968 16.4652 31.004L16.2954 31.0569L16.1876 30.9131C16.0194 30.6886 15.906 29.9542 15.8309 29.0783C15.7115 27.6813 15.6679 25.8527 15.6654 25.3215C15.6289 25.1892 15.5973 24.9995 15.6068 24.8259C15.6131 24.7149 15.6358 24.6052 15.6831 24.5106C15.7429 24.3918 15.8356 24.2999 15.9717 24.255C16.0235 24.2382 16.0801 24.2293 16.1405 24.2293ZM9.48072 22.6816C9.63767 22.6697 9.86891 22.6733 10.0631 22.7378C10.1667 22.7719 10.2629 22.824 10.339 22.8992C10.4284 22.9875 10.4876 23.1015 10.4982 23.2462C10.5036 23.3258 10.4929 23.4141 10.4635 23.5098L10.4514 23.5409C10.2211 24.046 8.85263 26.6987 7.70128 28.4658C6.98723 29.562 6.30826 30.3318 5.89588 30.158L5.85123 30.1391L5.81633 30.1052C5.0687 29.3773 7.2457 25.8911 8.30518 24.1946C8.55123 23.8004 8.73524 23.506 8.79407 23.3933L8.81416 23.3602C8.84228 23.321 8.8721 23.2591 8.90174 23.1972C9.01477 22.9624 9.13021 22.7222 9.47054 22.6826L9.48072 22.6816ZM6.23871 21.0772C6.43244 20.9748 6.64011 21.0431 6.78724 21.1834C6.83188 21.2267 6.87161 21.2767 6.90178 21.3288C6.93473 21.3851 6.95946 21.4474 6.97223 21.5099C7.00892 21.694 6.95821 21.8744 6.76894 21.9866C6.53163 22.1323 6.29263 22.2386 6.05435 22.3441C5.819 22.4486 5.58348 22.5532 5.37573 22.6839L5.35064 22.6985C5.12869 22.8046 4.9429 22.7487 4.81086 22.6156C4.75524 22.5592 4.71221 22.488 4.68426 22.4113C4.65891 22.3417 4.64507 22.2642 4.64453 22.1877C4.64274 21.9753 4.73943 21.7602 4.95424 21.6702C5.16521 21.5558 5.37885 21.4516 5.59241 21.3547C5.79972 21.2605 6.01819 21.1681 6.23871 21.0772ZM18.8044 21.5133C19.0679 21.3366 19.2418 21.4234 19.3667 21.6033C19.4266 21.6896 19.4548 21.7879 19.4787 21.873L19.501 21.9401C19.5554 22.0905 19.5982 22.2491 19.6345 22.4106C19.6675 22.5578 19.6964 22.7143 19.7245 22.8702L19.7254 22.8775C19.7491 23.0355 19.8174 23.2011 19.8848 23.3656C20.0014 23.6497 20.1179 23.9331 20.0885 24.2765L20.0831 24.3445C20.0778 24.3527 20.0452 24.4059 20.0402 24.4085C19.9061 24.611 19.7264 24.6702 19.5395 24.6513C19.3931 24.6363 19.252 24.5676 19.1368 24.4906L19.0594 24.4374L19.0287 24.3768C18.7871 23.8956 18.6709 23.3875 18.5547 22.8802C18.5033 22.656 18.4518 22.4313 18.3928 22.2219C18.2343 21.9139 18.369 21.7327 18.577 21.6106C18.6516 21.5669 18.7267 21.5402 18.7924 21.5171L18.8044 21.5133ZM21.3652 18.0942L21.6809 18.0654L21.7552 18.1145C22.2967 18.4712 22.792 18.8917 23.2883 19.3129C23.7373 19.6945 24.1883 20.0772 24.6592 20.4006C24.925 20.5761 26.0803 21.4955 27.0677 22.2817C27.3674 22.5201 28.9565 23.602 28.758 24.1367C28.6983 24.297 28.5729 24.4429 28.422 24.5475C28.2752 24.6484 28.0978 24.7163 27.9283 24.7257C27.6569 24.7406 26.8303 24.0245 26.5308 23.8095C25.2833 22.9139 23.0499 21.3103 22.4004 20.7738C22.1446 20.5813 21.9169 20.3664 21.6903 20.1522C21.4046 19.8823 21.1185 19.6122 20.7968 19.4109L20.6546 19.3216L20.6809 19.1131C20.7299 18.7296 20.8027 18.1602 21.3591 18.0952L21.3652 18.0942ZM6.89027 17.6027C7.06071 17.7867 7.18579 18.047 7.22784 18.3123C7.26819 18.5657 7.23498 18.8292 7.09802 19.0482L7.04321 19.136L6.94402 19.1618C6.10443 19.3796 5.25895 19.5684 4.41285 19.7572C3.32132 20.0007 2.22692 20.2451 1.17191 20.5441L1.0903 20.5851C0.929243 20.657 0.739798 20.6922 0.564095 20.6688C0.361877 20.6419 0.177693 20.5413 0.0627009 20.3383L0.0247541 20.2607L-0.000244141 20.2003L0.00600881 20.1336C0.0195793 19.9807 0.0644835 19.8249 0.138853 19.6881C0.210724 19.5557 0.311072 19.4381 0.43892 19.3529L0.458204 19.3406C1.59581 18.7202 3.18374 18.3571 4.67042 18.0179C5.36278 17.8596 6.03336 17.7063 6.63404 17.5304L6.78331 17.4866L6.89027 17.6027ZM22.632 15.9048C22.8681 15.9225 23.0795 16.0061 23.2913 16.0901C23.4341 16.1466 23.5779 16.2036 23.715 16.2301L23.7351 16.2356C23.7917 16.2517 23.8627 16.2667 23.9343 16.2819C24.3106 16.3617 24.7193 16.449 24.8681 16.9429L24.8857 17.0009L24.8762 17.0617C24.8699 17.102 24.8599 17.1401 24.8478 17.1736L24.8469 17.1755C24.7909 17.3253 24.6867 17.4183 24.5599 17.4661C24.4564 17.5048 24.3406 17.5108 24.2303 17.4933C24.1702 17.485 24.1112 17.4681 24.0568 17.4468L24.0255 17.4312C23.8002 17.3055 23.5591 17.1986 23.31 17.1048C23.0619 17.0112 22.8107 16.932 22.5618 16.8595C22.4663 16.8411 22.3906 16.7951 22.3338 16.732C22.265 16.6553 22.2306 16.559 22.2241 16.4585C22.2196 16.377 22.2333 16.291 22.2626 16.2136C22.3064 16.0978 22.3878 15.9931 22.4945 15.935L22.5596 15.8994L22.632 15.9048ZM6.06917 14.5456C6.61949 14.5147 7.17587 14.5218 7.73111 14.5287L8.29607 14.5351L8.34374 14.7335C8.3699 14.8424 8.38874 14.9552 8.39927 15.0696C8.40981 15.1832 8.41249 15.2976 8.40642 15.4101L8.3932 15.6642L8.14679 15.6605C7.75164 15.6541 7.35381 15.6599 6.95545 15.6756C6.57003 15.6907 6.17219 15.7172 5.76633 15.7523L5.69383 15.7587L5.62857 15.7245C5.42653 15.6186 5.33118 15.4461 5.31591 15.2606C5.30788 15.1614 5.32511 15.0603 5.3618 14.9677C5.39814 14.8788 5.45207 14.7958 5.51938 14.7277C5.65759 14.5886 5.85329 14.5055 6.06917 14.5456ZM31.0551 10.4168C31.2246 10.3451 31.3816 10.3582 31.5132 10.4251C31.5794 10.4588 31.6381 10.5065 31.6861 10.5635C31.7312 10.6166 31.7679 10.6787 31.7945 10.7445C31.8403 10.8592 31.8567 10.9911 31.8371 11.1181C31.9064 11.2208 31.9597 11.3443 31.9839 11.4659C32.0013 11.5536 32.0054 11.6432 31.992 11.7272C31.9757 11.8276 31.9355 11.9206 31.8687 11.997C31.7998 12.0746 31.7078 12.1317 31.5869 12.1584C31.116 12.2726 28.5311 12.8295 26.6304 13.1298C25.498 13.3086 24.5741 13.385 24.3677 13.2108L24.2982 13.1519L24.2794 13.0631C24.0834 12.1371 26.6304 11.4461 28.32 11.0688C28.5942 11.0078 28.9177 10.9396 29.1695 10.8867C29.3837 10.8417 29.5411 10.8085 29.6137 10.7898C29.8732 10.6662 30.1357 10.6249 30.3975 10.584C30.6241 10.5488 30.8511 10.5132 31.0443 10.4209L31.0551 10.4168ZM25.0427 8.09811C25.2314 8.0793 25.4147 8.18286 25.5393 8.3354C25.5989 8.40988 25.6476 8.4961 25.6766 8.5837C25.7094 8.68285 25.7201 8.78934 25.6997 8.89207C25.6713 9.03571 25.5902 9.16074 25.4395 9.24017C25.0596 9.50691 24.6936 9.80703 24.3293 10.1057C24.0167 10.362 23.7043 10.6183 23.3876 10.8511L23.3487 10.8797L23.3002 10.8924C23.2519 10.9049 23.2014 10.9083 23.1518 10.9032C23.061 10.8941 22.9734 10.8559 22.9045 10.7986C22.832 10.7386 22.7756 10.6548 22.7512 10.5572L22.7504 10.5554C22.7396 10.5102 22.7355 10.4614 22.7402 10.4111L22.7437 10.3754L22.7554 10.3441C22.8203 10.1673 23.0263 9.87638 23.2551 9.60487C23.4854 9.33181 23.7489 9.06507 23.9207 8.94665C24.0746 8.83016 24.2212 8.70743 24.3672 8.58526C24.5481 8.43382 24.7297 8.28183 24.9191 8.1447L24.974 8.10517L25.0427 8.09811ZM3.85521 5.95294C4.23839 5.74573 5.55411 6.79222 6.41138 7.4741C6.70145 7.70479 6.93509 7.8909 7.03428 7.95529L7.05231 7.96786C7.22007 8.09765 8.41535 8.98463 9.47465 9.76658C10.3556 10.417 11.095 10.9862 11.1183 10.9939C11.3567 11.0516 11.4928 11.2284 11.5433 11.4372C11.5658 11.5314 11.5699 11.6331 11.5567 11.7299C11.5433 11.8275 11.5126 11.9234 11.4675 12.0061C11.3643 12.195 11.1885 12.3271 10.9553 12.3152L10.8952 12.3116L10.8427 12.2816C9.57625 11.5561 8.33579 10.7619 7.12498 9.91829C5.91453 9.07507 4.73533 8.18304 3.59005 7.2613L3.50809 7.19517L3.49354 7.08978C3.47139 6.92926 3.45961 6.73196 3.49327 6.53998C3.53202 6.31947 3.62924 6.11062 3.83003 5.9689L3.85521 5.95294ZM11.8993 5.80746C12.0007 5.75325 12.1062 5.73344 12.2042 5.74197C12.2857 5.75023 12.362 5.77784 12.427 5.82104C12.4936 5.86498 12.5494 5.92707 12.5884 6.00421C12.6251 6.07613 12.6456 6.16088 12.6448 6.25453C12.73 6.61629 12.8851 6.96888 13.0398 7.3201C13.1398 7.54702 13.2398 7.77423 13.3241 8.00868L13.3536 8.08994L13.328 8.17625C13.2847 8.32274 13.1761 8.44152 13.047 8.51243C12.9675 8.55673 12.8768 8.5837 12.7872 8.58865C12.6829 8.59415 12.5799 8.57076 12.4916 8.51243C12.4032 8.45317 12.3345 8.36585 12.2991 8.24395C12.2007 8.01721 12.1155 7.77569 12.031 7.53473C11.9202 7.2192 11.8089 6.90302 11.6609 6.61648C11.6344 6.58465 11.6123 6.55089 11.5949 6.51668C11.5368 6.40368 11.5321 6.29141 11.5625 6.18528C11.5882 6.09677 11.6389 6.0188 11.7017 5.95413C11.7587 5.89479 11.8295 5.8448 11.8993 5.80746ZM24.1976 2.46896C24.4674 2.42915 24.7224 2.51629 24.9364 2.67048C25.1695 2.83852 25.3561 3.09131 25.4533 3.33805L25.5052 3.46977L25.4261 3.58708C24.7625 4.5712 24.0747 5.6076 23.3872 6.64363L22.4046 8.12269L22.3811 8.14516C22.3712 8.15479 22.3766 8.15516 22.3556 8.18497C22.2588 8.31916 22.0634 8.58801 21.8243 8.80228C21.4605 9.12864 21.0212 9.31768 20.6433 8.87272C20.4138 8.59883 20.3976 8.34402 20.487 8.10288C20.5585 7.91136 20.6929 7.75396 20.8286 7.60371C21.2116 6.90413 21.6701 6.2593 22.1283 5.61466C22.6426 4.89132 23.1576 4.16669 23.5558 3.3708C23.6345 3.20423 23.7262 3.06169 23.8177 2.91933C23.885 2.81495 23.953 2.70946 24.0086 2.60444L24.0706 2.48776L24.1976 2.46896Z" fill="#FFA500"/>
</g>
<defs>
<clipPath id="clip0_807_575">
<rect width="32" height="32" fill="white"/>
</clipPath>
</defs>
</svg>
