<svg width="145" height="41" viewBox="0 0 145 41" fill="none" xmlns="http://www.w3.org/2000/svg">
<path d="M63.0328 26.865H68.3474C69.4727 26.865 70.269 26.9862 70.7364 27.2285C71.2038 27.4882 71.4289 27.8864 71.4289 28.4403C71.4116 28.7346 71.3769 28.977 71.3423 29.1501L71.2384 29.6175C71.0307 30.5696 70.6499 31.2275 70.1132 31.5737C69.5592 31.9372 68.6071 32.1104 67.2395 32.1104H56.8353L57.3893 29.4271H66.2701C66.7721 29.4271 67.0491 29.3059 67.101 29.0635L67.1183 28.9424C67.1183 28.925 67.1183 28.9077 67.1356 28.8904V28.8558C67.1356 28.6481 66.9106 28.5442 66.4605 28.5442H60.9728C59.9341 28.5442 59.1724 28.423 58.6876 28.1633C58.1856 27.9037 57.9433 27.4882 57.9433 26.9169C57.9433 26.7265 57.9606 26.5361 58.0125 26.3456L58.1856 25.532C58.376 24.6664 58.7742 24.0605 59.3974 23.7316C60.0206 23.4027 60.9728 23.2469 62.2538 23.2469H71.7059L71.1346 25.9475H63.2232C62.7212 25.9475 62.4442 26.0687 62.3923 26.3283L62.375 26.4495C62.3577 26.4668 62.3577 26.5014 62.3577 26.5534C62.3577 26.7611 62.5827 26.865 63.0328 26.865ZM79.6716 32.1104H76.4863C75.0494 32.1104 74.0453 31.9719 73.4567 31.7122C72.8682 31.4525 72.5739 30.9851 72.5739 30.2753C72.5739 29.9984 72.6085 29.7041 72.6777 29.3751L74.5301 20.6675H78.9099L78.3559 23.2469H80.5198L79.9485 25.9994H77.7846L77.2133 28.6481C77.196 28.7866 77.1787 28.8731 77.1787 28.9077C77.1787 29.0289 77.2133 29.0982 77.2999 29.1328C77.3864 29.1847 77.5249 29.202 77.7327 29.202H80.2775L79.6716 32.1104ZM86.3188 29.202H89.9888C90.3869 29.202 90.6466 29.0116 90.7332 28.6307L91.8757 23.2469H96.2555L94.3859 32.1104H90.0061L90.1273 31.4698C89.556 31.9026 88.6731 32.1104 87.4786 32.1104H85.1243C83.722 32.1104 82.718 31.9719 82.1121 31.6949C81.5062 31.4352 81.1946 30.9332 81.1946 30.2061C81.1946 29.9637 81.2292 29.6867 81.2984 29.3751L82.5968 23.2469H86.9593L85.8167 28.6307C85.7994 28.6827 85.7994 28.7346 85.7994 28.8212C85.7994 29.0808 85.9725 29.202 86.3188 29.202ZM109.478 32.1104H100.355C98.9009 32.1104 97.8796 31.9892 97.3083 31.7468C96.7197 31.5045 96.4254 31.0197 96.4254 30.31C96.4254 30.1195 96.46 29.8079 96.5466 29.3751L97.2737 25.9821C97.4987 24.8915 97.9834 24.1644 98.6932 23.8009C99.403 23.4373 100.58 23.2469 102.225 23.2469H106.968L107.522 20.6675H111.902L109.478 32.1104ZM105.704 29.202L106.345 26.1725H102.381C101.861 26.1725 101.55 26.3976 101.463 26.8304L101.082 28.6481C101.065 28.7 101.065 28.7519 101.065 28.8212C101.065 29.0808 101.29 29.202 101.74 29.202H105.704ZM115.556 32.1104H111.142L113.011 23.2469H117.426L115.556 32.1104ZM117.564 22.2255H113.323L113.842 19.7673H118.084L117.564 22.2255ZM122.82 29.202H126.784C127.044 29.202 127.234 29.1674 127.321 29.0982C127.407 29.0289 127.477 28.8731 127.529 28.6481L127.927 26.7438C127.944 26.7092 127.944 26.6572 127.944 26.588C127.944 26.311 127.771 26.1725 127.425 26.1725H123.46C123.045 26.1725 122.803 26.3629 122.716 26.7438L122.318 28.6481C122.3 28.7346 122.283 28.8212 122.283 28.925C122.283 29.0462 122.318 29.1155 122.404 29.1501C122.474 29.1847 122.612 29.202 122.82 29.202ZM126.767 32.1104H121.625C120.188 32.1104 119.167 31.9892 118.579 31.7468C117.973 31.5045 117.678 31.0197 117.678 30.2926C117.678 30.033 117.713 29.7214 117.782 29.3751L118.509 25.9821C118.734 24.8915 119.219 24.1471 119.929 23.7835C120.639 23.42 121.816 23.2469 123.495 23.2469H128.636C130.073 23.2469 131.095 23.3681 131.701 23.6277C132.289 23.8874 132.583 24.3721 132.583 25.0992C132.583 25.3589 132.549 25.6532 132.48 25.9821L131.753 29.3751C131.51 30.4831 131.043 31.2102 130.333 31.5737C129.623 31.9372 128.446 32.1104 126.767 32.1104Z" fill="white"/>
<path d="M52.3749 17.626H42.3343L42.9402 14.7177H51.9248C52.3056 14.7177 52.548 14.5099 52.6346 14.0944L52.6692 13.9213C52.6865 13.8694 52.6865 13.8001 52.6865 13.7136C52.6865 13.4539 52.5307 13.3327 52.2191 13.3327H46.4371C45.5022 13.3327 44.7925 13.1769 44.3078 12.848C43.823 12.5364 43.5807 12.0863 43.5807 11.4977C43.5807 11.3073 43.598 11.1169 43.6499 10.9438L44.0827 8.88369C44.2385 8.20855 44.4462 7.67189 44.7405 7.29104C45.0175 6.9275 45.4503 6.65052 46.0389 6.46009C46.6102 6.26966 47.4065 6.18311 48.4279 6.18311H57.603L56.9797 9.09143H48.7395C48.3413 9.09143 48.0817 9.29917 47.9951 9.71464L47.9605 9.88776C47.9432 10.0089 47.9259 10.0782 47.9259 10.1301C47.9259 10.3552 48.099 10.4763 48.4452 10.4763H54.1407C56.0276 10.4763 56.9797 11.1342 56.9797 12.4499C56.9797 12.6576 56.9451 12.8999 56.8932 13.1942L56.5296 14.8908C56.3219 15.8429 55.9064 16.5354 55.2832 16.9681C54.66 17.4009 53.6906 17.626 52.3749 17.626ZM62.8053 14.7177H66.4753C66.8735 14.7177 67.1332 14.5272 67.2197 14.1464L68.3623 8.76251H72.7421L70.8725 17.626H66.4927L66.6138 16.9855C66.0426 17.4182 65.1597 17.626 63.9652 17.626H61.6108C60.2086 17.626 59.2045 17.4875 58.5986 17.2105C57.9927 16.9508 57.6811 16.4488 57.6811 15.7217C57.6811 15.4794 57.7157 15.2024 57.785 14.8908L59.0834 8.76251H63.4458L62.3033 14.1464C62.286 14.1983 62.286 14.2502 62.286 14.3368C62.286 14.5965 62.4591 14.7177 62.8053 14.7177ZM82.7449 11.6881H78.7979C78.3651 11.6881 78.1227 11.8786 78.0535 12.2594L76.9282 17.626H72.5484L74.4181 8.76251H78.7979L78.6594 9.40304C79.2306 8.97025 80.1308 8.76251 81.3253 8.76251H83.9567C85.3589 8.76251 86.363 8.901 86.9689 9.16068C87.5748 9.43766 87.8864 9.93969 87.8864 10.6668C87.8864 10.9091 87.8517 11.1861 87.7825 11.4977L86.4841 17.626H82.1217L83.2469 12.2594C83.2642 12.2075 83.2642 12.1382 83.2642 12.0517C83.2642 11.8093 83.0911 11.6881 82.7449 11.6881ZM101.016 17.626H92.3776C91.0446 17.626 90.0752 17.4529 89.4693 17.1239C88.8634 16.795 88.5518 16.2411 88.5518 15.462C88.5518 15.1504 88.5864 14.8215 88.673 14.4926L89.3135 11.4804C89.5039 10.5283 89.9886 9.83582 90.7503 9.40304C91.512 8.97025 92.5853 8.76251 93.9529 8.76251H100.306C101.258 8.76251 101.934 8.901 102.366 9.16068C102.799 9.42035 103.007 9.83582 103.007 10.4071C103.007 10.5975 102.972 10.8226 102.92 11.1169L102.747 11.9478C102.574 12.7788 102.262 13.3327 101.83 13.627C101.38 13.9213 100.618 14.0598 99.5272 14.0598H93.0701L93.0354 14.2502C93.0181 14.3887 93.0008 14.4753 93.0008 14.5099C93.0008 14.7003 93.0874 14.8042 93.2432 14.8561C93.399 14.9081 93.6933 14.9427 94.1607 14.9427H101.57L101.016 17.626ZM93.4509 12.3287H97.7615C98.1943 12.3287 98.4366 12.2075 98.4885 11.9651L98.5059 11.8613C98.5059 11.844 98.5059 11.8266 98.5232 11.8093C98.5232 11.792 98.5232 11.7747 98.5232 11.7574C98.5232 11.567 98.3327 11.4804 97.9346 11.4804H94.0741C93.7798 11.4804 93.5894 11.6189 93.5375 11.8786L93.4509 12.3287ZM107.341 17.626H102.979L104.848 8.76251H109.211L109.072 9.40304C109.28 9.26454 109.471 9.16068 109.626 9.07412C109.782 9.00487 110.042 8.93563 110.423 8.86638C110.786 8.79713 111.236 8.76251 111.756 8.76251H114.924L114.3 11.6881H109.02C108.726 11.6881 108.553 11.8786 108.466 12.2594L107.341 17.626ZM123.483 21.1748H119.449L120.072 18.2665H122.513C122.877 18.2665 123.119 18.0761 123.206 17.6779L123.31 17.1759H118.566C117.129 17.1759 116.108 17.0547 115.537 16.8123C114.965 16.57 114.671 16.0853 114.671 15.3755C114.671 15.0812 114.706 14.7523 114.792 14.4234L115.415 11.4977C115.658 10.4071 116.125 9.66271 116.818 9.29917C117.493 8.93563 118.67 8.76251 120.349 8.76251H129.472L127.43 18.4223C127.205 19.5129 126.789 20.2573 126.201 20.6209C125.595 20.9844 124.694 21.1748 123.483 21.1748ZM123.898 14.406L124.469 11.6881H120.297C120.055 11.6881 119.899 11.7228 119.813 11.7747C119.726 11.844 119.657 11.9998 119.605 12.2594L119.276 13.8521C119.259 13.904 119.259 13.9559 119.259 14.0425C119.259 14.2849 119.414 14.406 119.726 14.406H123.898ZM138.356 21.1748H134.495L135.118 18.2665H137.386C137.75 18.2665 137.992 18.0761 138.079 17.6779L138.182 17.1759H133.612C132.175 17.1759 131.154 17.0547 130.583 16.8123C130.011 16.57 129.717 16.0853 129.717 15.3755C129.717 15.0812 129.752 14.7523 129.838 14.4234L131.033 8.76251H135.395L134.322 13.8521C134.305 13.904 134.305 13.9559 134.305 14.0425C134.305 14.2849 134.461 14.406 134.772 14.406H138.771L139.966 8.76251H144.345L142.303 18.4223C142.078 19.5129 141.662 20.2573 141.074 20.6209C140.468 20.9844 139.567 21.1748 138.356 21.1748Z" fill="#FFA500"/>
<path fill-rule="evenodd" clip-rule="evenodd" d="M18.579 2.48224C18.8097 2.42566 19.0621 2.44456 19.2903 2.51781C19.527 2.59385 19.7477 2.73224 19.9011 2.90798L19.969 2.98535L19.9787 3.08839C20.0925 4.23145 20.1685 5.36172 20.2116 6.49221C20.2545 7.61782 20.2649 8.74653 20.2483 9.8907L20.2462 10.0468L20.1264 10.1413C20.0618 10.1921 19.9834 10.2445 19.8981 10.2898C19.9903 10.3721 20.0647 10.4774 20.1146 10.6067C21.0488 11.2889 21.9997 11.9307 22.9501 12.5716C24.0094 13.285 25.0685 13.9999 26.1026 14.7687C26.5796 15.0109 27.0924 15.4047 27.587 15.7848C28.0317 16.1281 28.4624 16.4587 28.8054 16.6299L28.9194 16.6868L28.9627 16.8103C29.1043 17.2143 28.9051 17.4359 28.71 17.6521C28.6686 17.6978 28.6271 17.7437 28.6058 17.7763C28.4288 18.044 28.2411 18.295 28.0477 18.533C27.8569 18.7671 27.6546 18.9949 27.4459 19.2172C27.2517 19.4789 27.0863 19.7686 26.921 20.058C26.731 20.3912 26.5403 20.725 26.303 21.0323L26.291 21.0472C25.8809 21.5153 25.5565 22.0598 25.233 22.6038C24.9138 23.1398 24.594 23.6767 24.1896 24.1594L24.181 24.1683C23.876 24.5049 23.6178 24.8884 23.36 25.2714C23.1898 25.5238 23.0195 25.7773 22.8461 26.0066C22.7311 26.1847 22.5986 26.3398 22.4666 26.4942C22.2815 26.7116 22.0959 26.9283 22.0064 27.1725L21.985 27.2308L21.9442 27.2765C21.7676 27.4738 21.5184 27.5958 21.2613 27.6329C21.0046 27.6698 20.733 27.6229 20.5113 27.4832L20.4763 27.4609L20.4527 27.4369L19.3435 26.7366C18.9472 26.4858 18.5775 26.2532 18.489 26.2019L18.2768 26.0729C17.2653 25.4612 16.2484 24.8461 15.3536 24.0392C14.9171 23.7829 14.536 23.4631 14.1569 23.1451C13.9605 22.9804 13.7638 22.8152 13.5642 22.6639L13.403 22.5414L13.4447 22.3407C13.5964 21.612 14.0293 21.0478 14.462 20.4828C14.7182 20.1486 14.9753 19.8133 15.1515 19.468C15.4593 18.8533 17.8489 15.379 18.5519 14.3571L18.7351 14.0899C18.8516 13.8856 19.1344 13.8818 19.5257 14.0361C19.9977 14.2227 20.7902 14.6367 21.5966 15.1233C22.4044 15.6111 23.2348 16.1763 23.7842 16.6645C24.3958 17.2083 24.6896 17.7198 24.3782 18.0893L24.3539 18.1157C24.1881 18.2726 24.0559 18.5088 23.9227 18.7479C23.7749 19.0096 23.6267 19.275 23.412 19.5011C22.9863 19.9931 22.6546 20.5664 22.3238 21.1385C21.9267 21.8247 21.5301 22.5109 20.9596 23.0984C20.9185 23.1615 20.8694 23.2133 20.8151 23.2538C20.7022 23.3368 20.5697 23.3741 20.438 23.3724C20.3177 23.3701 20.1951 23.3358 20.0894 23.2757C20.0055 23.2276 19.9294 23.1631 19.8703 23.085C19.6324 22.8289 19.3062 22.6435 18.9827 22.4602C18.4804 22.1755 17.983 21.8926 17.6758 21.3279L17.622 21.2287L17.6416 21.1163C17.7308 20.6091 18.4322 19.6451 19.0704 18.7669C19.4268 18.2771 19.7632 17.8142 19.9394 17.5131C19.9938 17.2739 20.1383 17.1469 20.3225 17.1027C20.468 17.0676 20.629 17.1005 20.7716 17.1778C20.8918 17.2424 21.007 17.3424 21.0889 17.4578C21.2482 17.6801 21.2998 17.9591 21.1179 18.2059C20.554 19.0824 19.9476 19.9959 19.3622 20.8788L19.2292 21.0794C19.4316 21.2561 19.6668 21.4042 19.9018 21.5519C20.0916 21.6712 20.2826 21.7911 20.4674 21.9315C20.4761 21.9382 20.4856 21.9415 20.4952 21.9415C20.568 21.8388 20.6568 21.71 20.7563 21.5645C20.9523 21.1076 21.2047 20.3357 21.5471 19.8213L22.0938 19.0042C22.1954 18.6713 22.3943 18.4235 22.5917 18.1775L22.6436 18.1126C22.0017 17.5777 21.3021 17.1024 20.6052 16.6296C20.3389 16.449 20.0728 16.2685 19.8013 16.0783L19.2582 16.9175C18.1822 18.5842 17.1037 20.2549 15.887 21.8426C17.0253 22.6328 18.1645 23.4554 19.3025 24.2775L19.9291 24.7299C20.1324 24.8307 20.3047 24.9681 20.4761 25.1042C20.6348 25.2307 20.794 25.357 20.9589 25.4285C21.4778 24.7203 21.986 24.0109 22.4766 23.3007C23.0123 22.5258 23.5355 21.7405 24.0402 20.943L24.0445 20.9352C24.3272 20.5126 24.6013 20.125 24.8747 19.7378C25.3629 19.0467 25.8516 18.355 26.2779 17.6384C26.3349 17.4899 26.4038 17.3507 26.4878 17.2211L26.5643 17.1123C26.1264 16.7666 25.2649 16.1397 24.2861 15.4426C22.6408 14.2712 20.6827 12.9145 19.811 12.3343C19.7552 12.3095 19.708 12.2805 19.6608 12.2512C19.6427 12.2398 19.708 12.1322 19.6862 12.1491C19.3422 12.6846 18.9988 13.1837 18.6566 13.682C18.2422 14.2851 17.8274 14.8884 17.4414 15.5078L17.4255 15.5335L17.4023 15.5577C16.999 15.9824 16.6906 16.5004 16.3827 17.0181C16.0614 17.5576 15.7398 18.0981 15.2992 18.5684C14.856 19.27 14.3403 19.9143 13.8253 20.5578C13.3039 21.2094 12.7817 21.8616 12.3394 22.5778L12.3173 22.6079C12.2431 22.7016 12.7156 23.1424 13.3238 23.652C13.8911 24.1274 14.5942 24.6345 15.1544 25.0383C15.5765 25.3427 15.921 25.591 16.0847 25.738C16.5008 26.0338 16.8879 26.3545 17.274 26.6749C17.7525 27.0715 18.231 27.4685 18.7458 27.8002C18.8449 27.863 19.1014 28.1163 19.3371 28.3682C19.5664 28.6127 19.7909 28.8756 19.8539 28.9885L19.8647 29.0097C20.126 29.5716 19.5293 30.074 19.1441 30.398L18.9402 30.5779L18.872 30.5996C18.6696 30.6632 17.8739 30.1144 16.9407 29.3814C15.5559 28.2942 13.748 26.7876 13.3982 26.4702C12.5991 25.9504 11.9045 25.3162 11.2108 24.6815C10.7764 24.2839 10.3413 23.8861 9.90172 23.5343L9.82111 23.4696L9.79331 23.3701C9.62787 22.7767 10.0065 22.3773 10.3632 22.0012C10.4728 21.8856 10.5804 21.7721 10.6517 21.6666L10.655 21.6633C11.186 20.9078 11.6917 20.1441 12.1961 19.3813C13.0362 18.1122 13.8762 16.8427 14.8046 15.6484C15.4967 14.6877 16.0536 13.9213 16.6051 13.1621L17.3943 12.0759C17.5391 11.8144 17.7183 11.5954 17.8966 11.3785C18.0986 11.132 18.2999 10.8862 18.4143 10.6033C18.4659 10.4415 18.5649 10.3216 18.6879 10.2372C18.755 10.1909 18.828 10.1571 18.9035 10.1334C18.8764 10.0891 18.853 10.0392 18.8341 9.98307L18.8221 9.93783C18.3803 7.60237 18.2742 5.71776 18.1401 3.33628L18.1289 3.29837C18.0782 3.12319 18.092 2.96256 18.1554 2.82617C18.2213 2.68722 18.3334 2.58117 18.4769 2.51726L18.579 2.48224ZM16.3179 30.7637L16.4246 30.7593C16.6836 30.7426 16.972 30.7245 17.1599 31.0646L17.2036 31.1434L17.2003 31.2338C17.1783 31.837 17.0067 32.3891 16.8351 32.9414C16.6981 33.382 16.5607 33.8237 16.5135 34.2695L16.5081 34.3187L16.4914 34.3596C16.3717 34.6526 16.1568 34.7672 15.9243 34.7637C15.8242 34.7626 15.7249 34.7354 15.6336 34.6908C15.5506 34.6501 15.4711 34.5925 15.4038 34.5252C15.1944 34.3167 15.0715 33.9919 15.1899 33.6842C15.3124 33.3087 15.4222 32.925 15.5316 32.5429C15.6833 32.0123 15.8355 31.4814 16.0176 30.9732L16.0947 30.7585L16.3179 30.7637ZM19.8264 30.6693C20.0727 30.6281 20.2959 30.666 20.5169 30.7031L20.7391 30.7408L20.8104 30.8848C20.9946 31.2555 20.9617 31.62 20.9299 31.9756L20.9223 32.0548C20.9759 32.4825 21.1583 34.6972 21.1998 36.3896C21.2251 37.4161 21.1888 38.2821 21.0259 38.5433C20.8559 38.8312 20.6064 38.8476 20.3671 38.863C20.3069 38.8664 20.2471 38.8708 20.2199 38.8795L20.0141 38.9436L19.8834 38.7693C19.6796 38.4973 19.5421 37.6073 19.4512 36.5458C19.3064 34.8528 19.2536 32.6368 19.2506 31.993C19.2063 31.8326 19.168 31.6027 19.1796 31.3924C19.1872 31.2578 19.2147 31.1249 19.272 31.0103C19.3445 30.8663 19.4569 30.7549 19.6218 30.7006C19.6845 30.6801 19.7531 30.6693 19.8264 30.6693ZM11.7555 28.7937C11.9457 28.7793 12.2259 28.7837 12.4612 28.8619C12.5868 28.9031 12.7034 28.9663 12.7955 29.0574C12.904 29.1645 12.9757 29.3026 12.9886 29.4779C12.9951 29.5744 12.9821 29.6815 12.9465 29.7974L12.9318 29.8351C12.6527 30.4472 10.9943 33.662 9.59898 35.8035C8.73363 37.1319 7.9108 38.0649 7.41104 37.8543L7.35694 37.8314L7.31463 37.7903C6.40859 36.9082 9.04686 32.6832 10.3308 30.6273C10.629 30.1496 10.852 29.7928 10.9233 29.6562L10.9477 29.6161C10.9817 29.5686 11.0179 29.4936 11.0538 29.4186C11.1908 29.134 11.3307 28.843 11.7431 28.795L11.7555 28.7937ZM7.82651 26.8494C8.06129 26.7253 8.31296 26.8081 8.49127 26.9781C8.54537 27.0305 8.59351 27.0912 8.63008 27.1544C8.67001 27.2225 8.69998 27.2981 8.71545 27.3738C8.75992 27.5969 8.69847 27.8155 8.46909 27.9515C8.1815 28.128 7.89186 28.2568 7.60308 28.3848C7.31788 28.5114 7.03245 28.6381 6.78068 28.7965L6.75028 28.8142C6.4813 28.9428 6.25615 28.8751 6.09612 28.7137C6.02872 28.6455 5.97657 28.5591 5.9427 28.4662C5.91197 28.3818 5.8952 28.2879 5.89455 28.1951C5.89239 27.9378 6.00956 27.6771 6.26989 27.5681C6.52555 27.4294 6.78447 27.3031 7.04327 27.1857C7.29451 27.0715 7.55926 26.9596 7.82651 26.8494ZM23.0546 27.3779C23.374 27.1637 23.5847 27.269 23.7361 27.4869C23.8087 27.5915 23.8428 27.7107 23.8718 27.8138L23.8989 27.8951C23.9648 28.0774 24.0166 28.2696 24.0606 28.4654C24.1007 28.6437 24.1356 28.8334 24.1697 29.0223L24.1708 29.0312C24.1996 29.2226 24.2823 29.4233 24.364 29.6227C24.5053 29.9669 24.6464 30.3104 24.6108 30.7266L24.6043 30.809C24.5978 30.819 24.5584 30.8834 24.5523 30.8865C24.3898 31.132 24.172 31.2037 23.9455 31.1808C23.7681 31.1625 23.5971 31.0794 23.4576 30.986L23.3636 30.9216L23.3265 30.8481C23.0338 30.2649 22.8929 29.6492 22.752 29.0344C22.6898 28.7627 22.6274 28.4904 22.5558 28.2366C22.3638 27.8633 22.5271 27.6438 22.7791 27.4958C22.8695 27.4428 22.9605 27.4105 23.0401 27.3825L23.0546 27.3779ZM26.158 23.2343L26.5406 23.1994L26.6307 23.259C27.287 23.6912 27.8872 24.2008 28.4886 24.7113C29.0328 25.1737 29.5793 25.6375 30.15 26.0294C30.4722 26.2421 31.8722 27.3563 33.0689 28.3091C33.432 28.598 35.3579 29.9091 35.1173 30.5572C35.045 30.7514 34.893 30.9282 34.7101 31.0549C34.5321 31.1772 34.3172 31.2596 34.1118 31.2709C33.7829 31.289 32.7811 30.4212 32.4182 30.1607C30.9063 29.0753 28.1997 27.1319 27.4126 26.4817C27.1026 26.2484 26.8267 25.988 26.5521 25.7284C26.2057 25.4013 25.8591 25.074 25.4693 24.83L25.2969 24.7218L25.3288 24.4691C25.3881 24.0043 25.4764 23.3143 26.1507 23.2355L26.158 23.2343ZM8.61613 22.6387C8.82268 22.8617 8.97426 23.1772 9.02522 23.4986C9.07412 23.8058 9.03387 24.125 8.8679 24.3905L8.80147 24.4969L8.68126 24.5282C7.66378 24.7921 6.63916 25.0209 5.61378 25.2497C4.29097 25.5448 2.96469 25.841 1.68613 26.2034L1.58724 26.253C1.39206 26.3401 1.16247 26.3828 0.949539 26.3545C0.704473 26.3219 0.481264 26.1999 0.341907 25.9539L0.29592 25.8599L0.265625 25.7866L0.273203 25.7058C0.289649 25.5205 0.344067 25.3318 0.434195 25.1659C0.521293 25.0055 0.642904 24.863 0.797841 24.7598L0.821211 24.7449C2.19985 23.993 4.12424 23.553 5.92593 23.1418C6.76499 22.9501 7.57766 22.7642 8.3056 22.5511L8.48651 22.498L8.61613 22.6387ZM27.6932 20.581C27.9794 20.6025 28.2356 20.7038 28.4923 20.8056C28.6653 20.8741 28.8396 20.9432 29.0058 20.9753L29.0301 20.982C29.0987 21.0014 29.1847 21.0196 29.2715 21.038C29.7276 21.1347 30.2229 21.2405 30.4031 21.8391L30.4244 21.9094L30.413 21.9831C30.4054 22.0319 30.3933 22.0781 30.3786 22.1187L30.3775 22.1209C30.3097 22.3026 30.1833 22.4152 30.0296 22.4732C29.9042 22.52 29.7639 22.5273 29.6302 22.5061C29.5574 22.4961 29.4858 22.4755 29.4199 22.4497L29.3821 22.4308C29.109 22.2786 28.8168 22.1489 28.5149 22.0353C28.2142 21.9218 27.9099 21.8259 27.6082 21.738C27.4924 21.7158 27.4007 21.66 27.3319 21.5835C27.2486 21.4905 27.2068 21.3738 27.1989 21.2521C27.1935 21.1533 27.2101 21.049 27.2456 20.9553C27.2987 20.8149 27.3973 20.6881 27.5266 20.6176L27.6055 20.5745L27.6932 20.581ZM7.62105 18.9339C8.28797 18.8964 8.96225 18.905 9.63512 18.9133L10.3198 18.9211L10.3776 19.1615C10.4093 19.2936 10.4321 19.4302 10.4449 19.5689C10.4576 19.7065 10.4609 19.8452 10.4535 19.9816L10.4375 20.2895L10.1389 20.285C9.66001 20.2772 9.17789 20.2842 8.69511 20.3032C8.22803 20.3216 7.7459 20.3537 7.25404 20.3962L7.16619 20.404L7.0871 20.3625C6.84225 20.2342 6.72669 20.0251 6.70819 19.8004C6.69845 19.6801 6.71933 19.5576 6.7638 19.4454C6.80784 19.3376 6.87319 19.2371 6.95477 19.1545C7.12226 18.986 7.35943 18.8853 7.62105 18.9339ZM37.901 13.9302C38.1065 13.8433 38.2968 13.8592 38.4563 13.9402C38.5365 13.9812 38.6076 14.039 38.6658 14.108C38.7204 14.1723 38.7649 14.2476 38.7971 14.3274C38.8526 14.4664 38.8725 14.6262 38.8487 14.7801C38.9328 14.9046 38.9974 15.0543 39.0267 15.2016C39.0478 15.3078 39.0528 15.4164 39.0365 15.5183C39.0168 15.64 38.9681 15.7526 38.887 15.8453C38.8036 15.9393 38.6921 16.0085 38.5456 16.0408C37.9749 16.1792 34.8423 16.8541 32.5388 17.218C31.1666 17.4348 30.0468 17.5274 29.7968 17.3163L29.7125 17.2448L29.6897 17.1372C29.4522 16.015 32.5388 15.1776 34.5864 14.7204C34.9187 14.6464 35.3108 14.5639 35.6159 14.4997C35.8755 14.4451 36.0664 14.4049 36.1543 14.3822C36.4687 14.2325 36.7868 14.1825 37.1042 14.1329C37.3788 14.0902 37.6539 14.0471 37.888 13.9351L37.901 13.9302ZM30.6148 11.1202C30.8434 11.0975 31.0656 11.2229 31.2166 11.4078C31.2888 11.4981 31.3478 11.6026 31.383 11.7087C31.4228 11.8289 31.4356 11.9579 31.411 12.0824C31.3766 12.2565 31.2782 12.408 31.0956 12.5043C30.6352 12.8275 30.1917 13.1913 29.7502 13.5532C29.3714 13.8638 28.9928 14.1745 28.609 14.4566L28.5618 14.4912L28.5031 14.5066C28.4446 14.5217 28.3833 14.5258 28.3232 14.5197C28.2132 14.5086 28.107 14.4624 28.0235 14.3929C27.9357 14.3202 27.8673 14.2187 27.8378 14.1004L27.8367 14.0982C27.8237 14.0434 27.8187 13.9843 27.8244 13.9233L27.8287 13.88L27.8428 13.8421C27.9214 13.6279 28.1711 13.2753 28.4484 12.9463C28.7275 12.6153 29.0468 12.2921 29.2551 12.1486C29.4416 12.0074 29.6191 11.8587 29.7962 11.7106C30.0154 11.5271 30.2354 11.3429 30.465 11.1767L30.5315 11.1288L30.6148 11.1202ZM4.93798 8.52054C5.40236 8.26943 6.99686 9.53766 8.03577 10.364C8.3873 10.6436 8.67045 10.8691 8.79065 10.9472L8.8125 10.9624C9.01581 11.1197 10.4643 12.1946 11.7481 13.1422C12.8157 13.9305 13.7118 14.6202 13.74 14.6295C14.0289 14.6996 14.1939 14.9138 14.255 15.1668C14.2824 15.2809 14.2873 15.4042 14.2712 15.5216C14.255 15.6399 14.2179 15.756 14.1632 15.8563C14.0382 16.0852 13.825 16.2453 13.5424 16.2309L13.4696 16.2265L13.406 16.1901C11.8712 15.311 10.3679 14.3484 8.90057 13.3261C7.43364 12.3042 6.00459 11.2232 4.61664 10.1061L4.51732 10.026L4.49968 9.89826C4.47285 9.70373 4.45857 9.46463 4.49936 9.23197C4.54632 8.96474 4.66414 8.71163 4.90747 8.53989L4.93798 8.52054ZM14.6865 8.34424C14.8094 8.27855 14.9372 8.25454 15.056 8.26488C15.1548 8.27488 15.2473 8.30834 15.3259 8.3607C15.4068 8.41394 15.4744 8.4892 15.5216 8.58268C15.5661 8.66983 15.5909 8.77254 15.5899 8.88604C15.6932 9.32445 15.8812 9.75175 16.0686 10.1774C16.1898 10.4524 16.311 10.7277 16.4132 11.0119L16.4489 11.1103L16.4179 11.2149C16.3655 11.3925 16.2338 11.5364 16.0774 11.6223C15.9811 11.676 15.8711 11.7087 15.7625 11.7147C15.6361 11.7214 15.5113 11.693 15.4043 11.6223C15.2972 11.5505 15.2138 11.4447 15.171 11.297C15.0518 11.0222 14.9485 10.7295 14.8461 10.4375C14.7118 10.0551 14.5769 9.67194 14.3976 9.32467C14.3655 9.2861 14.3386 9.24519 14.3176 9.20373C14.2472 9.06678 14.2415 8.93073 14.2784 8.80211C14.3094 8.69485 14.3709 8.60036 14.4471 8.52199C14.5161 8.45007 14.6019 8.38949 14.6865 8.34424ZM29.5906 4.29837C29.9175 4.25012 30.2266 4.35572 30.4859 4.54258C30.7684 4.74623 30.9945 5.05258 31.1124 5.3516L31.1752 5.51123L31.0794 5.6534C30.2752 6.84603 29.4417 8.10203 28.6085 9.35758L27.4177 11.15L27.3892 11.1773C27.3772 11.1889 27.3838 11.1894 27.3583 11.2255C27.241 11.3881 27.0042 11.7139 26.7144 11.9736C26.2736 12.3691 25.7412 12.5982 25.2832 12.059C25.0051 11.7271 24.9854 11.4183 25.0938 11.126C25.1804 10.8939 25.3433 10.7032 25.5078 10.5211C25.9719 9.67327 26.5275 8.89182 27.0829 8.11059C27.7061 7.23398 28.3302 6.35582 28.8129 5.39129C28.9082 5.18942 29.0193 5.01668 29.1302 4.84416C29.2118 4.71766 29.2941 4.58983 29.3615 4.46255L29.4367 4.32115L29.5906 4.29837Z" fill="#FFA500"/>
</svg>
