<svg width="40" height="37" viewBox="0 0 40 37" fill="none" xmlns="http://www.w3.org/2000/svg">
<path id="path12" fill-rule="evenodd" clip-rule="evenodd" d="M18.579 0.482239C18.8097 0.425659 19.0621 0.444558 19.2903 0.517812C19.527 0.593845 19.7477 0.732237 19.9011 0.90798L19.969 0.985346L19.9787 1.08839C20.0925 2.23145 20.1685 3.36172 20.2116 4.49221C20.2545 5.61782 20.2649 6.74653 20.2483 7.8907L20.2462 8.04677L20.1264 8.14125C20.0618 8.19205 19.9834 8.24452 19.8981 8.28976C19.9903 8.37213 20.0647 8.4774 20.1146 8.60668C21.0488 9.28887 21.9997 9.9307 22.9501 10.5716C24.0094 11.285 25.0685 11.9999 26.1026 12.7687C26.5796 13.0109 27.0924 13.4047 27.587 13.7848C28.0317 14.1281 28.4624 14.4587 28.8054 14.6299L28.9194 14.6868L28.9627 14.8103C29.1043 15.2143 28.9051 15.4359 28.71 15.6521C28.6686 15.6978 28.6271 15.7437 28.6058 15.7763C28.4288 16.044 28.2411 16.295 28.0477 16.533C27.8569 16.7671 27.6546 16.9949 27.4459 17.2172C27.2517 17.4789 27.0863 17.7686 26.921 18.058C26.731 18.3912 26.5403 18.725 26.303 19.0323L26.291 19.0472C25.8809 19.5153 25.5565 20.0598 25.233 20.6038C24.9138 21.1398 24.594 21.6767 24.1896 22.1594L24.181 22.1683C23.876 22.5049 23.6178 22.8884 23.36 23.2714C23.1898 23.5238 23.0195 23.7773 22.8461 24.0066C22.7311 24.1847 22.5986 24.3398 22.4666 24.4942C22.2815 24.7116 22.0959 24.9283 22.0064 25.1725L21.985 25.2308L21.9442 25.2765C21.7676 25.4738 21.5184 25.5958 21.2613 25.6329C21.0046 25.6698 20.733 25.6229 20.5113 25.4832L20.4763 25.4609L20.4527 25.4369L19.3435 24.7366C18.9472 24.4858 18.5775 24.2532 18.489 24.2019L18.2768 24.0729C17.2653 23.4612 16.2484 22.8461 15.3536 22.0392C14.9171 21.7829 14.536 21.4631 14.1569 21.1451C13.9605 20.9804 13.7638 20.8152 13.5642 20.6639L13.403 20.5414L13.4447 20.3407C13.5964 19.612 14.0293 19.0478 14.462 18.4828C14.7182 18.1486 14.9753 17.8133 15.1515 17.468C15.4593 16.8533 17.8489 13.379 18.5519 12.3571L18.7351 12.0899C18.8516 11.8856 19.1344 11.8818 19.5257 12.0361C19.9977 12.2227 20.7902 12.6367 21.5966 13.1233C22.4044 13.6111 23.2348 14.1763 23.7842 14.6645C24.3958 15.2083 24.6896 15.7198 24.3782 16.0893L24.3539 16.1157C24.1881 16.2726 24.0559 16.5088 23.9227 16.7479C23.7749 17.0096 23.6267 17.275 23.412 17.5011C22.9863 17.9931 22.6546 18.5664 22.3238 19.1385C21.9267 19.8247 21.5301 20.5109 20.9596 21.0984C20.9185 21.1615 20.8694 21.2133 20.8151 21.2538C20.7022 21.3368 20.5697 21.3741 20.438 21.3724C20.3177 21.3701 20.1951 21.3358 20.0894 21.2757C20.0055 21.2276 19.9294 21.1631 19.8703 21.085C19.6324 20.8289 19.3062 20.6435 18.9827 20.4602C18.4804 20.1755 17.983 19.8926 17.6758 19.3279L17.622 19.2287L17.6416 19.1163C17.7308 18.6091 18.4322 17.6451 19.0704 16.7669C19.4268 16.2771 19.7632 15.8142 19.9394 15.5131C19.9938 15.2739 20.1383 15.1469 20.3225 15.1027C20.468 15.0676 20.629 15.1005 20.7716 15.1778C20.8918 15.2424 21.007 15.3424 21.0889 15.4578C21.2482 15.6801 21.2998 15.9591 21.1179 16.2059C20.554 17.0824 19.9476 17.9959 19.3622 18.8788L19.2292 19.0794C19.4316 19.2561 19.6668 19.4042 19.9018 19.5519C20.0916 19.6712 20.2826 19.7911 20.4674 19.9315C20.4761 19.9382 20.4856 19.9415 20.4952 19.9415C20.568 19.8388 20.6568 19.71 20.7563 19.5645C20.9523 19.1076 21.2047 18.3357 21.5471 17.8213L22.0938 17.0042C22.1954 16.6713 22.3943 16.4235 22.5917 16.1775L22.6436 16.1126C22.0017 15.5777 21.3021 15.1024 20.6052 14.6296C20.3389 14.449 20.0728 14.2685 19.8013 14.0783L19.2582 14.9175C18.1822 16.5842 17.1037 18.2549 15.887 19.8426C17.0253 20.6328 18.1645 21.4554 19.3025 22.2775L19.9291 22.7299C20.1324 22.8307 20.3047 22.9681 20.4761 23.1042C20.6348 23.2307 20.794 23.357 20.9589 23.4285C21.4778 22.7203 21.986 22.0109 22.4766 21.3007C23.0123 20.5258 23.5355 19.7405 24.0402 18.943L24.0445 18.9352C24.3272 18.5126 24.6013 18.125 24.8747 17.7378C25.3629 17.0467 25.8516 16.355 26.2779 15.6384C26.3349 15.4899 26.4038 15.3507 26.4878 15.2211L26.5643 15.1123C26.1264 14.7666 25.2649 14.1397 24.2861 13.4426C22.6408 12.2712 20.6827 10.9145 19.811 10.3343C19.7552 10.3095 19.708 10.2805 19.6608 10.2512C19.6427 10.2398 19.708 10.1322 19.6862 10.1491C19.3422 10.6846 18.9988 11.1837 18.6566 11.682C18.2422 12.2851 17.8274 12.8884 17.4414 13.5078L17.4255 13.5335L17.4023 13.5577C16.999 13.9824 16.6906 14.5004 16.3827 15.0181C16.0614 15.5576 15.7398 16.0981 15.2992 16.5684C14.856 17.27 14.3403 17.9143 13.8253 18.5578C13.3039 19.2094 12.7817 19.8616 12.3394 20.5778L12.3173 20.6079C12.2431 20.7016 12.7156 21.1424 13.3238 21.652C13.8911 22.1274 14.5942 22.6345 15.1544 23.0383C15.5765 23.3427 15.921 23.591 16.0847 23.738C16.5008 24.0338 16.8879 24.3545 17.274 24.6749C17.7525 25.0715 18.231 25.4685 18.7458 25.8002C18.8449 25.863 19.1014 26.1163 19.3371 26.3682C19.5664 26.6127 19.7909 26.8756 19.8539 26.9885L19.8647 27.0097C20.126 27.5716 19.5293 28.074 19.1441 28.398L18.9402 28.5779L18.872 28.5996C18.6696 28.6632 17.8739 28.1144 16.9407 27.3814C15.5559 26.2942 13.748 24.7876 13.3982 24.4702C12.5991 23.9504 11.9045 23.3162 11.2108 22.6815C10.7764 22.2839 10.3413 21.8861 9.90172 21.5343L9.82111 21.4696L9.79331 21.3701C9.62787 20.7767 10.0065 20.3773 10.3632 20.0012C10.4728 19.8856 10.5804 19.7721 10.6517 19.6666L10.655 19.6633C11.186 18.9078 11.6917 18.1441 12.1961 17.3813C13.0362 16.1122 13.8762 14.8427 14.8046 13.6484C15.4967 12.6877 16.0536 11.9213 16.6051 11.1621L17.3943 10.0759C17.5391 9.81443 17.7183 9.59545 17.8966 9.37846C18.0986 9.13202 18.2999 8.88625 18.4143 8.60334C18.4659 8.4415 18.5649 8.32155 18.6879 8.23718C18.755 8.19094 18.828 8.15715 18.9035 8.13336C18.8764 8.08912 18.853 8.03921 18.8341 7.98307L18.8221 7.93783C18.3803 5.60237 18.2742 3.71776 18.1401 1.33628L18.1289 1.29837C18.0782 1.12319 18.092 0.962559 18.1554 0.826166C18.2213 0.687216 18.3334 0.581173 18.4769 0.517256L18.579 0.482239ZM16.3179 28.7637L16.4246 28.7593C16.6836 28.7426 16.972 28.7245 17.1599 29.0646L17.2036 29.1434L17.2003 29.2338C17.1783 29.837 17.0067 30.3891 16.8351 30.9414C16.6981 31.382 16.5607 31.8237 16.5135 32.2695L16.5081 32.3187L16.4914 32.3596C16.3717 32.6526 16.1568 32.7672 15.9243 32.7637C15.8242 32.7626 15.7249 32.7354 15.6336 32.6908C15.5506 32.6501 15.4711 32.5925 15.4038 32.5252C15.1944 32.3167 15.0715 31.9919 15.1899 31.6842C15.3124 31.3087 15.4222 30.925 15.5316 30.5429C15.6833 30.0123 15.8355 29.4814 16.0176 28.9732L16.0947 28.7585L16.3179 28.7637ZM19.8264 28.6693C20.0727 28.6281 20.2959 28.666 20.5169 28.7031L20.7391 28.7408L20.8104 28.8848C20.9946 29.2555 20.9617 29.62 20.9299 29.9756L20.9223 30.0548C20.9759 30.4825 21.1583 32.6972 21.1998 34.3896C21.2251 35.4161 21.1888 36.2821 21.0259 36.5433C20.8559 36.8312 20.6064 36.8476 20.3671 36.863C20.3069 36.8664 20.2471 36.8708 20.2199 36.8795L20.0141 36.9436L19.8834 36.7693C19.6796 36.4973 19.5421 35.6073 19.4512 34.5458C19.3064 32.8528 19.2536 30.6368 19.2506 29.993C19.2063 29.8326 19.168 29.6027 19.1796 29.3924C19.1872 29.2578 19.2147 29.1249 19.272 29.0103C19.3445 28.8663 19.4569 28.7549 19.6218 28.7006C19.6845 28.6801 19.7531 28.6693 19.8264 28.6693ZM11.7555 26.7937C11.9457 26.7793 12.2259 26.7837 12.4612 26.8619C12.5868 26.9031 12.7034 26.9663 12.7955 27.0574C12.904 27.1645 12.9757 27.3026 12.9886 27.4779C12.9951 27.5744 12.9821 27.6815 12.9465 27.7974L12.9318 27.8351C12.6527 28.4472 10.9943 31.662 9.59898 33.8035C8.73363 35.1319 7.9108 36.0649 7.41104 35.8543L7.35694 35.8314L7.31463 35.7903C6.40859 34.9082 9.04686 30.6832 10.3308 28.6273C10.629 28.1496 10.852 27.7928 10.9233 27.6562L10.9477 27.6161C10.9817 27.5686 11.0179 27.4936 11.0538 27.4186C11.1908 27.134 11.3307 26.843 11.7431 26.795L11.7555 26.7937ZM7.82651 24.8494C8.06129 24.7253 8.31296 24.8081 8.49127 24.9781C8.54537 25.0305 8.59351 25.0912 8.63008 25.1544C8.67001 25.2225 8.69998 25.2981 8.71545 25.3738C8.75992 25.5969 8.69847 25.8155 8.46909 25.9515C8.1815 26.128 7.89186 26.2568 7.60308 26.3848C7.31788 26.5114 7.03245 26.6381 6.78068 26.7965L6.75028 26.8142C6.4813 26.9428 6.25615 26.8751 6.09612 26.7137C6.02872 26.6455 5.97657 26.5591 5.9427 26.4662C5.91197 26.3818 5.8952 26.2879 5.89455 26.1951C5.89239 25.9378 6.00956 25.6771 6.26989 25.5681C6.52555 25.4294 6.78447 25.3031 7.04327 25.1857C7.29451 25.0715 7.55926 24.9596 7.82651 24.8494ZM23.0546 25.3779C23.374 25.1637 23.5847 25.269 23.7361 25.4869C23.8087 25.5915 23.8428 25.7107 23.8718 25.8138L23.8989 25.8951C23.9648 26.0774 24.0166 26.2696 24.0606 26.4654C24.1007 26.6437 24.1356 26.8334 24.1697 27.0223L24.1708 27.0312C24.1996 27.2226 24.2823 27.4233 24.364 27.6227C24.5053 27.9669 24.6464 28.3104 24.6108 28.7266L24.6043 28.809C24.5978 28.819 24.5584 28.8834 24.5523 28.8865C24.3898 29.132 24.172 29.2037 23.9455 29.1808C23.7681 29.1625 23.5971 29.0794 23.4576 28.986L23.3636 28.9216L23.3265 28.8481C23.0338 28.2649 22.8929 27.6492 22.752 27.0344C22.6898 26.7627 22.6274 26.4904 22.5558 26.2366C22.3638 25.8633 22.5271 25.6438 22.7791 25.4958C22.8695 25.4428 22.9605 25.4105 23.0401 25.3825L23.0546 25.3779ZM26.158 21.2343L26.5406 21.1994L26.6307 21.259C27.287 21.6912 27.8872 22.2008 28.4886 22.7113C29.0328 23.1737 29.5793 23.6375 30.15 24.0294C30.4722 24.2421 31.8722 25.3563 33.0689 26.3091C33.432 26.598 35.3579 27.9091 35.1173 28.5572C35.045 28.7514 34.893 28.9282 34.7101 29.0549C34.5321 29.1772 34.3172 29.2596 34.1118 29.2709C33.7829 29.289 32.7811 28.4212 32.4182 28.1607C30.9063 27.0753 28.1997 25.1319 27.4126 24.4817C27.1026 24.2484 26.8267 23.988 26.5521 23.7284C26.2057 23.4013 25.8591 23.074 25.4693 22.83L25.2969 22.7218L25.3288 22.4691C25.3881 22.0043 25.4764 21.3143 26.1507 21.2355L26.158 21.2343ZM8.61613 20.6387C8.82268 20.8617 8.97426 21.1772 9.02522 21.4986C9.07412 21.8058 9.03387 22.125 8.8679 22.3905L8.80147 22.4969L8.68126 22.5282C7.66378 22.7921 6.63916 23.0209 5.61378 23.2497C4.29097 23.5448 2.96469 23.841 1.68613 24.2034L1.58724 24.253C1.39206 24.3401 1.16247 24.3828 0.949539 24.3545C0.704473 24.3219 0.481264 24.1999 0.341907 23.9539L0.29592 23.8599L0.265625 23.7866L0.273203 23.7058C0.289649 23.5205 0.344067 23.3318 0.434195 23.1659C0.521293 23.0055 0.642904 22.863 0.797841 22.7598L0.821211 22.7449C2.19985 21.993 4.12424 21.553 5.92593 21.1418C6.76499 20.9501 7.57766 20.7642 8.3056 20.5511L8.48651 20.498L8.61613 20.6387ZM27.6932 18.581C27.9794 18.6025 28.2356 18.7038 28.4923 18.8056C28.6653 18.8741 28.8396 18.9432 29.0058 18.9753L29.0301 18.982C29.0987 19.0014 29.1847 19.0196 29.2715 19.038C29.7276 19.1347 30.2229 19.2405 30.4031 19.8391L30.4244 19.9094L30.413 19.9831C30.4054 20.0319 30.3933 20.0781 30.3786 20.1187L30.3775 20.1209C30.3097 20.3026 30.1833 20.4152 30.0296 20.4732C29.9042 20.52 29.7639 20.5273 29.6302 20.5061C29.5574 20.4961 29.4858 20.4755 29.4199 20.4497L29.3821 20.4308C29.109 20.2786 28.8168 20.1489 28.5149 20.0353C28.2142 19.9218 27.9099 19.8259 27.6082 19.738C27.4924 19.7158 27.4007 19.66 27.3319 19.5835C27.2486 19.4905 27.2068 19.3738 27.1989 19.2521C27.1935 19.1533 27.2101 19.049 27.2456 18.9553C27.2987 18.8149 27.3973 18.6881 27.5266 18.6176L27.6055 18.5745L27.6932 18.581ZM7.62105 16.9339C8.28797 16.8964 8.96225 16.905 9.63512 16.9133L10.3198 16.9211L10.3776 17.1615C10.4093 17.2936 10.4321 17.4302 10.4449 17.5689C10.4576 17.7065 10.4609 17.8452 10.4535 17.9816L10.4375 18.2895L10.1389 18.285C9.66001 18.2772 9.17789 18.2842 8.69511 18.3032C8.22803 18.3216 7.7459 18.3537 7.25404 18.3962L7.16619 18.404L7.0871 18.3625C6.84225 18.2342 6.72669 18.0251 6.70819 17.8004C6.69845 17.6801 6.71933 17.5576 6.7638 17.4454C6.80784 17.3376 6.87319 17.2371 6.95477 17.1545C7.12226 16.986 7.35943 16.8853 7.62105 16.9339ZM37.901 11.9302C38.1065 11.8433 38.2968 11.8592 38.4563 11.9402C38.5365 11.9812 38.6076 12.039 38.6658 12.108C38.7204 12.1723 38.7649 12.2476 38.7971 12.3274C38.8526 12.4664 38.8725 12.6262 38.8487 12.7801C38.9328 12.9046 38.9974 13.0543 39.0267 13.2016C39.0478 13.3078 39.0528 13.4164 39.0365 13.5183C39.0168 13.64 38.9681 13.7526 38.887 13.8453C38.8036 13.9393 38.6921 14.0085 38.5456 14.0408C37.9749 14.1792 34.8423 14.8541 32.5388 15.218C31.1666 15.4348 30.0468 15.5274 29.7968 15.3163L29.7125 15.2448L29.6897 15.1372C29.4522 14.015 32.5388 13.1776 34.5864 12.7204C34.9187 12.6464 35.3108 12.5639 35.6159 12.4997C35.8755 12.4451 36.0664 12.4049 36.1543 12.3822C36.4687 12.2325 36.7868 12.1825 37.1042 12.1329C37.3788 12.0902 37.6539 12.0471 37.888 11.9351L37.901 11.9302ZM30.6148 9.12024C30.8434 9.09745 31.0656 9.22295 31.2166 9.40781C31.2888 9.49807 31.3478 9.60256 31.383 9.70872C31.4228 9.82888 31.4356 9.95793 31.411 10.0824C31.3766 10.2565 31.2782 10.408 31.0956 10.5043C30.6352 10.8275 30.1917 11.1913 29.7502 11.5532C29.3714 11.8638 28.9928 12.1745 28.609 12.4566L28.5618 12.4912L28.5031 12.5066C28.4446 12.5217 28.3833 12.5258 28.3232 12.5197C28.2132 12.5086 28.107 12.4624 28.0235 12.3929C27.9357 12.3202 27.8673 12.2187 27.8378 12.1004L27.8367 12.0982C27.8237 12.0434 27.8187 11.9843 27.8244 11.9233L27.8287 11.88L27.8428 11.8421C27.9214 11.6279 28.1711 11.2753 28.4484 10.9463C28.7275 10.6153 29.0468 10.2921 29.2551 10.1486C29.4416 10.0074 29.6191 9.85867 29.7962 9.7106C30.0154 9.52708 30.2354 9.34289 30.465 9.17671L30.5315 9.1288L30.6148 9.12024ZM4.93798 6.52054C5.40236 6.26943 6.99686 7.53766 8.03577 8.36402C8.3873 8.64358 8.67045 8.86913 8.79065 8.94716L8.8125 8.96239C9.01581 9.11968 10.4643 10.1946 11.7481 11.1422C12.8157 11.9305 13.7118 12.6202 13.74 12.6295C14.0289 12.6996 14.1939 12.9138 14.255 13.1668C14.2824 13.2809 14.2873 13.4042 14.2712 13.5216C14.255 13.6399 14.2179 13.756 14.1632 13.8563C14.0382 14.0852 13.825 14.2453 13.5424 14.2309L13.4696 14.2265L13.406 14.1901C11.8712 13.311 10.3679 12.3484 8.90057 11.3261C7.43364 10.3042 6.00459 9.22317 4.61664 8.10613L4.51732 8.02598L4.49968 7.89826C4.47285 7.70373 4.45857 7.46463 4.49936 7.23197C4.54632 6.96474 4.66414 6.71163 4.90747 6.53989L4.93798 6.52054ZM14.6865 6.34424C14.8094 6.27855 14.9372 6.25454 15.056 6.26488C15.1548 6.27488 15.2473 6.30834 15.3259 6.3607C15.4068 6.41394 15.4744 6.4892 15.5216 6.58268C15.5661 6.66983 15.5909 6.77254 15.5899 6.88604C15.6932 7.32445 15.8812 7.75175 16.0686 8.17738C16.1898 8.45239 16.311 8.72773 16.4132 9.01186L16.4489 9.11034L16.4179 9.21494C16.3655 9.39247 16.2338 9.53642 16.0774 9.62234C15.9811 9.67603 15.8711 9.70871 15.7625 9.71472C15.6361 9.72139 15.5113 9.69304 15.4043 9.62234C15.2972 9.55054 15.2138 9.44471 15.171 9.29698C15.0518 9.0222 14.9485 8.72951 14.8461 8.43749C14.7118 8.05511 14.5769 7.67194 14.3976 7.32467C14.3655 7.2861 14.3386 7.24519 14.3176 7.20373C14.2472 7.06678 14.2415 6.93073 14.2784 6.80211C14.3094 6.69485 14.3709 6.60036 14.4471 6.52199C14.5161 6.45007 14.6019 6.38949 14.6865 6.34424ZM29.5906 2.29837C29.9175 2.25012 30.2266 2.35572 30.4859 2.54258C30.7684 2.74623 30.9945 3.05258 31.1124 3.3516L31.1752 3.51123L31.0794 3.6534C30.2752 4.84603 29.4417 6.10203 28.6085 7.35758L27.4177 9.15003L27.3892 9.17726C27.3772 9.18893 27.3838 9.18938 27.3583 9.22551C27.241 9.38813 27.0042 9.71394 26.7144 9.97361C26.2736 10.3691 25.7412 10.5982 25.2832 10.059C25.0051 9.72706 24.9854 9.41826 25.0938 9.12602C25.1804 8.89392 25.3433 8.70317 25.5078 8.52109C25.9719 7.67327 26.5275 6.89182 27.0829 6.11059C27.7061 5.23398 28.3302 4.35582 28.8129 3.39129C28.9082 3.18942 29.0193 3.01668 29.1302 2.84416C29.2118 2.71766 29.2941 2.58983 29.3615 2.46255L29.4367 2.32115L29.5906 2.29837Z" fill="#FFA500"/>
</svg>
