<svg width="24" height="24" viewBox="0 0 24 24" fill="none" xmlns="http://www.w3.org/2000/svg">
<path d="M14.7142 14.3699L15.0172 14.0523L14.3137 13.3062L14.0108 13.6239L14.7142 14.3699ZM16.0346 13.9192L17.3054 14.6477L17.7819 13.7234L16.5111 12.9949L16.0346 13.9192ZM17.55 16.0955L16.6051 17.0862L17.3086 17.8323L18.2535 16.8416L17.55 16.0955ZM16.0294 17.4052C15.065 17.5 12.5699 17.4155 9.8684 14.583L9.16491 15.3291C12.1129 18.42 14.9187 18.571 16.122 18.4527L16.0294 17.4052ZM9.8684 14.583C7.29335 11.8831 6.86679 9.61226 6.8137 8.62709L5.81758 8.68678C5.8844 9.92671 6.41258 12.4433 9.16491 15.3291L9.8684 14.583ZM10.7832 10.2482L10.974 10.0482L10.2705 9.30217L10.0797 9.50219L10.7832 10.2482ZM11.1258 7.49852L10.2871 6.31711L9.48839 6.94761L10.3271 8.12904L11.1258 7.49852ZM7.46618 6.05996L6.42215 7.15461L7.12565 7.90067L8.16967 6.80602L7.46618 6.05996ZM10.4315 9.87522C10.0797 9.50219 10.0792 9.50269 10.0788 9.5032C10.0786 9.50336 10.0781 9.50388 10.0778 9.50422C10.0772 9.50491 10.0765 9.50562 10.0758 9.50634C10.0745 9.50779 10.0731 9.5093 10.0716 9.51087C10.0688 9.51402 10.0657 9.51743 10.0625 9.5211C10.0561 9.52845 10.049 9.53685 10.0415 9.54634C10.0264 9.56531 10.0093 9.58867 9.99137 9.61662C9.95536 9.67266 9.91613 9.74675 9.88284 9.83992C9.81491 10.03 9.77849 10.2806 9.82415 10.591C9.91344 11.1979 10.3098 11.9995 11.3252 13.0641L12.0286 12.318C11.0785 11.3218 10.8521 10.7155 10.8101 10.4297C10.79 10.2937 10.8108 10.2267 10.8165 10.2109C10.82 10.2011 10.8216 10.2001 10.8174 10.2068C10.8153 10.21 10.8117 10.2152 10.8062 10.2221C10.8035 10.2255 10.8002 10.2294 10.7964 10.2338C10.7945 10.236 10.7925 10.2383 10.7902 10.2407C10.7892 10.2419 10.7881 10.2431 10.7869 10.2444C10.7863 10.245 10.7857 10.2456 10.7851 10.2463C10.7848 10.2466 10.7843 10.2471 10.7841 10.2473C10.7837 10.2478 10.7832 10.2482 10.4315 9.87522ZM11.3252 13.0641C12.3408 14.129 13.1046 14.5435 13.6811 14.6368C13.9757 14.6844 14.2132 14.6464 14.3934 14.5756C14.4818 14.5409 14.5521 14.5 14.6054 14.4624C14.632 14.4436 14.6542 14.4257 14.6722 14.4099C14.6812 14.4021 14.6892 14.3947 14.6962 14.388C14.6997 14.3846 14.703 14.3814 14.706 14.3784C14.7075 14.3769 14.7089 14.3754 14.7103 14.374C14.711 14.3733 14.7116 14.3726 14.7123 14.3719C14.7126 14.3716 14.7132 14.3711 14.7133 14.3709C14.7138 14.3704 14.7142 14.3699 14.3625 13.9969C14.0108 13.6239 14.0112 13.6234 14.0117 13.6229C14.0118 13.6228 14.0123 13.6223 14.0126 13.6219C14.0132 13.6213 14.0138 13.6207 14.0144 13.62C14.0157 13.6188 14.0168 13.6176 14.018 13.6164C14.0203 13.6141 14.0225 13.612 14.0245 13.61C14.0287 13.6061 14.0324 13.6026 14.0357 13.5998C14.0422 13.5941 14.0471 13.5904 14.0501 13.5882C14.0563 13.5839 14.055 13.5859 14.0452 13.5897C14.0289 13.5961 13.9636 13.6181 13.8324 13.5968C13.5575 13.5524 12.9785 13.3139 12.0286 12.318L11.3252 13.0641ZM10.2871 6.31711C9.6091 5.3621 8.27588 5.21099 7.46618 6.05996L8.16967 6.80602C8.52331 6.43521 9.1514 6.47296 9.48839 6.94761L10.2871 6.31711ZM6.8137 8.62709C6.80061 8.38433 6.9062 8.13075 7.12565 7.90067L6.42215 7.15461C6.06476 7.52934 5.78378 8.0598 5.81758 8.68678L6.8137 8.62709ZM16.6051 17.0862C16.4223 17.2779 16.2264 17.3858 16.0294 17.4052L16.122 18.4527C16.6106 18.4047 17.0109 18.1444 17.3086 17.8323L16.6051 17.0862ZM10.974 10.0482C11.6288 9.36161 11.6775 8.27558 11.1258 7.49852L10.3271 8.12904C10.5955 8.50707 10.5556 9.00326 10.2705 9.30217L10.974 10.0482ZM17.3054 14.6477C17.8494 14.9595 17.9341 15.6928 17.55 16.0955L18.2535 16.8416C19.145 15.9068 18.8701 14.3471 17.7819 13.7234L17.3054 14.6477ZM15.0172 14.0523C15.2726 13.7845 15.6838 13.7181 16.0346 13.9192L16.5111 12.9949C15.7904 12.5818 14.8959 12.6959 14.3137 13.3062L15.0172 14.0523Z" fill="white"/>
<circle cx="12.3005" cy="11.9914" r="10.7526" stroke="white" stroke-width="1.36541"/>
</svg>
