<svg width="24" height="24" viewBox="0 0 24 24" fill="none" xmlns="http://www.w3.org/2000/svg">
<path d="M14.8857 16.0408L15.1887 15.7232L14.4852 14.9771L14.1823 15.2948L14.8857 16.0408ZM16.2061 15.5901L17.4769 16.3186L17.9534 15.3943L16.6827 14.6658L16.2061 15.5901ZM17.7216 17.7664L16.7766 18.7571L17.4801 19.5032L18.425 18.5125L17.7216 17.7664ZM16.2009 19.0761C15.2365 19.1709 12.7414 19.0864 10.0399 16.2539L9.33642 17C12.2844 20.0909 15.0902 20.2419 16.2935 20.1236L16.2009 19.0761ZM10.0399 16.2539C7.46486 13.554 7.0383 11.2832 6.9852 10.298L5.98909 10.3577C6.05591 11.5976 6.58409 14.1142 9.33642 17L10.0399 16.2539ZM10.9547 11.9191L11.1455 11.7191L10.442 10.9731L10.2512 11.1731L10.9547 11.9191ZM11.2973 9.16942L10.4586 7.98801L9.6599 8.61851L10.4986 9.79994L11.2973 9.16942ZM7.63768 7.73086L6.59366 8.82551L7.29715 9.57156L8.34117 8.47691L7.63768 7.73086ZM10.603 11.5461C10.2512 11.1731 10.2508 11.1736 10.2503 11.1741C10.2501 11.1743 10.2496 11.1748 10.2493 11.1751C10.2487 11.1758 10.248 11.1765 10.2473 11.1772C10.246 11.1787 10.2446 11.1802 10.2431 11.1818C10.2403 11.1849 10.2372 11.1883 10.234 11.192C10.2276 11.1993 10.2205 11.2077 10.213 11.2172C10.1979 11.2362 10.1808 11.2596 10.1629 11.2875C10.1269 11.3436 10.0876 11.4176 10.0544 11.5108C9.98642 11.7009 9.95 11.9515 9.99566 12.2619C10.0849 12.8688 10.4813 13.6704 11.4967 14.735L12.2001 13.9889C11.25 12.9927 11.0236 12.3864 10.9816 12.1006C10.9616 11.9646 10.9823 11.8976 10.988 11.8818C10.9915 11.872 10.9932 11.871 10.9889 11.8776C10.9868 11.8809 10.9832 11.8861 10.9777 11.893C10.975 11.8964 10.9717 11.9003 10.9679 11.9047C10.966 11.9069 10.964 11.9092 10.9618 11.9116C10.9607 11.9128 10.9596 11.914 10.9584 11.9153C10.9578 11.9159 10.9572 11.9165 10.9566 11.9172C10.9563 11.9175 10.9558 11.918 10.9556 11.9182C10.9552 11.9187 10.9547 11.9191 10.603 11.5461ZM11.4967 14.735C12.5124 15.7999 13.2761 16.2144 13.8526 16.3076C14.1472 16.3553 14.3848 16.3173 14.5649 16.2465C14.6533 16.2118 14.7237 16.1709 14.7769 16.1333C14.8035 16.1145 14.8257 16.0966 14.8437 16.0808C14.8528 16.073 14.8607 16.0656 14.8677 16.0589C14.8712 16.0555 14.8745 16.0523 14.8775 16.0493C14.879 16.0478 14.8804 16.0463 14.8818 16.0449C14.8825 16.0442 14.8832 16.0435 14.8838 16.0428C14.8842 16.0425 14.8847 16.042 14.8848 16.0418C14.8853 16.0413 14.8857 16.0408 14.534 15.6678C14.1823 15.2948 14.1828 15.2943 14.1832 15.2938C14.1833 15.2937 14.1838 15.2932 14.1841 15.2928C14.1847 15.2922 14.1853 15.2915 14.1859 15.2909C14.1872 15.2897 14.1883 15.2885 14.1895 15.2873C14.1918 15.285 14.194 15.2829 14.1961 15.2809C14.2002 15.277 14.2039 15.2735 14.2072 15.2707C14.2137 15.265 14.2186 15.2613 14.2216 15.2591C14.2278 15.2548 14.2265 15.2568 14.2167 15.2606C14.2004 15.267 14.1351 15.289 14.004 15.2677C13.7291 15.2233 13.15 14.9848 12.2001 13.9889L11.4967 14.735ZM10.4586 7.98801C9.78061 7.033 8.44739 6.88189 7.63768 7.73086L8.34117 8.47691C8.69482 8.10611 9.32291 8.14385 9.6599 8.61851L10.4586 7.98801ZM6.9852 10.298C6.97212 10.0552 7.07771 9.80165 7.29715 9.57156L6.59366 8.82551C6.23626 9.20024 5.95529 9.7307 5.98909 10.3577L6.9852 10.298ZM16.7766 18.7571C16.5939 18.9488 16.3979 19.0567 16.2009 19.0761L16.2935 20.1236C16.7821 20.0756 17.1824 19.8153 17.4801 19.5032L16.7766 18.7571ZM11.1455 11.7191C11.8003 11.0325 11.849 9.94648 11.2973 9.16942L10.4986 9.79994C10.767 10.178 10.7271 10.6742 10.442 10.9731L11.1455 11.7191ZM17.4769 16.3186C18.0209 16.6304 18.1056 17.3637 17.7216 17.7664L18.425 18.5125C19.3165 17.5777 19.0416 16.018 17.9534 15.3943L17.4769 16.3186ZM15.1887 15.7232C15.4441 15.4554 15.8553 15.389 16.2061 15.5901L16.6827 14.6658C15.9619 14.2527 15.0674 14.3668 14.4852 14.9771L15.1887 15.7232Z" fill="white"/>
<circle cx="12.3005" cy="11.9914" r="10.7526" stroke="white" stroke-width="1.36541"/>
</svg>
