<svg width="16" height="16" viewBox="0 0 16 16" fill="none" xmlns="http://www.w3.org/2000/svg">
<path id="Vector" d="M13.2002 14.8572C6.60999 14.8572 1.26758 9.5148 1.26758 2.92461C1.26758 2.62728 1.27846 2.33249 1.29983 2.04062C1.32435 1.70566 1.33662 1.53818 1.4244 1.38572C1.4971 1.25945 1.62594 1.1397 1.75718 1.07641C1.91564 1 2.10046 1 2.47008 1H4.63898C4.94981 1 5.10523 1 5.23846 1.05116C5.35614 1.09635 5.46093 1.16974 5.54362 1.2649C5.63723 1.37263 5.69034 1.51869 5.79657 1.81081L6.69429 4.27958C6.81785 4.61945 6.87967 4.78939 6.8692 4.95061C6.85997 5.09278 6.81139 5.22959 6.72901 5.34582C6.6356 5.47764 6.48055 5.57067 6.17044 5.75674L5.1168 6.38892C6.04208 8.42816 7.69586 10.0841 9.73588 11.008L10.3681 9.95438C10.5541 9.64421 10.6471 9.48916 10.7789 9.39578C10.8952 9.31341 11.032 9.26483 11.1742 9.25559C11.3354 9.24512 11.5054 9.30694 11.8453 9.4305L14.314 10.3282C14.6061 10.4345 14.7522 10.4876 14.8599 10.5812C14.955 10.6639 15.0285 10.7686 15.0736 10.8864C15.1248 11.0195 15.1248 11.175 15.1248 11.4858V13.6547C15.1248 14.0243 15.1248 14.2092 15.0483 14.3676C14.9851 14.4989 14.8654 14.6277 14.7391 14.7004C14.5866 14.7882 14.4192 14.8004 14.0842 14.825C13.7923 14.8464 13.4975 14.8572 13.2002 14.8572Z" stroke="#FFA500" stroke-width="0.785242" stroke-linecap="round" stroke-linejoin="round"/>
</svg>
