<svg width="23" height="24" viewBox="0 0 23 24" fill="none" xmlns="http://www.w3.org/2000/svg">
<path d="M16.1045 7.27586C16.1091 7.27586 16.1152 7.27586 16.1212 7.27586C16.2799 7.27586 16.4272 7.32657 16.548 7.41394L16.5457 7.41238C16.6338 7.49117 16.693 7.60195 16.7074 7.72677V7.72911C16.7226 7.82428 16.731 7.9335 16.731 8.04505C16.731 8.09576 16.7295 8.14569 16.7257 8.19561V8.18859C16.5548 10.0367 15.8137 14.5184 15.4371 16.5873C15.2776 17.4633 14.964 17.7566 14.6603 17.7847C14.0005 17.8479 13.4993 17.337 12.86 16.9063C11.8592 16.2315 11.2935 15.8118 10.3224 15.1542C9.19933 14.3952 9.92751 13.9762 10.5669 13.2944C10.7347 13.115 13.6436 10.3963 13.7005 10.1498C13.7036 10.135 13.7051 10.1186 13.7051 10.1014C13.7051 10.0406 13.6831 9.98519 13.6474 9.94306C13.6079 9.91654 13.5586 9.90172 13.5069 9.90172C13.4728 9.90172 13.4401 9.90874 13.4097 9.92044L13.4112 9.91966C13.311 9.94306 11.7124 11.0285 8.61541 13.1758C8.27752 13.4497 7.85078 13.6228 7.38608 13.6431H7.38152C6.7232 13.5612 6.12562 13.4107 5.55841 13.1961L5.6146 13.2148C4.90236 12.9761 4.33667 12.8505 4.38526 12.4464C4.41108 12.2363 4.69304 12.0213 5.23114 11.8013C8.54581 10.3175 10.7562 9.33952 11.8622 8.86729C13.0825 8.20185 14.4971 7.65422 15.9846 7.29927L16.1038 7.27508L16.1045 7.27586ZM11.4029 0.243164C5.09902 0.258766 -0.00585938 5.51281 -0.00585938 11.9916C-0.00585938 18.4798 5.11345 23.7401 11.4294 23.7401C17.7454 23.7401 22.8647 18.4806 22.8647 11.9916C22.8647 5.51281 17.7599 0.258766 11.4575 0.243164H11.456C11.4383 0.243164 11.4206 0.243164 11.4029 0.243164Z" fill="white"/>
</svg>
