<svg width="16" height="16" viewBox="0 0 16 16" fill="none" xmlns="http://www.w3.org/2000/svg">
<path d="M8.19942 0.954102C6.9953 0.955395 5.81224 1.27004 4.76657 1.8671C3.72089 2.46415 2.8486 3.32307 2.23546 4.35939C1.62231 5.39572 1.28943 6.57378 1.26953 7.77774C1.24963 8.9817 1.54341 10.1701 2.12197 11.2261L1.26758 14.8178L4.85924 13.9634C5.78561 14.4716 6.81589 14.7613 7.87135 14.8103C8.92681 14.8594 9.97952 14.6665 10.949 14.2464C11.9185 13.8264 12.7792 13.1902 13.4652 12.3866C14.1512 11.583 14.6445 10.6332 14.9072 9.60981C15.17 8.5864 15.1953 7.51647 14.9813 6.48177C14.7673 5.44708 14.3195 4.47501 13.6723 3.63984C13.0251 2.80467 12.1955 2.12851 11.247 1.66302C10.2984 1.19754 9.25602 0.955057 8.19942 0.954102Z" stroke="#FFA500" stroke-width="0.785242" stroke-linecap="round" stroke-linejoin="round"/>
<path d="M11.637 9.48527C11.4507 9.38335 10.523 8.89922 10.3505 8.8337C10.1779 8.76454 10.0515 8.73178 9.92678 8.93562C9.80035 9.13765 9.44158 9.58719 9.32882 9.72369C9.21947 9.85837 9.10842 9.87475 8.9222 9.77465C7.81512 9.18497 7.08902 8.72268 6.3595 7.38861C6.16645 7.03371 6.55256 7.05919 6.91305 6.29297C6.97455 6.15829 6.9438 6.04363 6.89596 5.94171C6.84812 5.83978 6.47226 4.85334 6.31508 4.45112C6.16303 4.05981 6.00585 4.11441 5.89138 4.10713C5.78204 4.09985 5.65732 4.09985 5.5309 4.09985C5.40447 4.09985 5.20116 4.15081 5.02861 4.3492C4.85605 4.55122 4.36914 5.03716 4.36914 6.02361C4.36914 7.01005 5.04398 7.96556 5.13624 8.10024C5.23192 8.23492 6.46372 10.2588 8.35499 11.1306C9.55092 11.6802 10.019 11.7275 10.617 11.6329C10.9809 11.5746 11.7309 11.1488 11.8864 10.6774C12.0419 10.2078 12.0419 9.80559 11.9957 9.72187C11.9496 9.63269 11.8232 9.58173 11.637 9.48527Z" fill="#FFA500"/>
</svg>
