<svg width="23" height="24" viewBox="0 0 23 24" fill="none" xmlns="http://www.w3.org/2000/svg">
<path d="M16.9119 14.3816C16.6337 14.2293 15.2476 13.5059 14.9897 13.408C14.7319 13.3047 14.543 13.2558 14.3567 13.5603C14.1678 13.8622 13.6317 14.5339 13.4632 14.7378C13.2999 14.939 13.1339 14.9635 12.8557 14.8139C11.2015 13.9329 10.1166 13.2422 9.02663 11.2489C8.73818 10.7186 9.31509 10.7567 9.85371 9.6118C9.9456 9.41056 9.89965 9.23925 9.82818 9.08696C9.7567 8.93468 9.19511 7.46078 8.96026 6.8598C8.73307 6.27513 8.49822 6.35672 8.32719 6.34584C8.16382 6.33496 7.97747 6.33496 7.78857 6.33496C7.59967 6.33496 7.2959 6.4111 7.03808 6.70751C6.78025 7.00936 6.05273 7.73544 6.05273 9.20933C6.05273 10.6832 7.06105 12.1109 7.1989 12.3121C7.34185 12.5134 9.18235 15.5373 12.0082 16.8399C13.7951 17.6611 14.4945 17.7318 15.388 17.5904C15.9317 17.5034 17.0523 16.8671 17.2846 16.1628C17.5169 15.4612 17.5169 14.8602 17.448 14.7351C17.3791 14.6018 17.1902 14.5257 16.9119 14.3816Z" fill="white"/>
<path d="M22.1052 7.4391C21.5284 6.03086 20.7014 4.76685 19.6472 3.68116C18.593 2.5981 17.3627 1.74581 15.9895 1.15577C14.5856 0.549988 13.0949 0.243164 11.5583 0.243164H11.5073C9.96048 0.251031 8.46217 0.565722 7.0532 1.18461C5.69272 1.78253 4.47263 2.63219 3.42866 3.71526C2.3847 4.79832 1.56535 6.05708 0.998695 7.46008C0.411623 8.9129 0.115534 10.4575 0.123192 12.0467C0.130849 13.8667 0.554562 15.6735 1.34839 17.2889V21.275C1.34839 21.9411 1.8742 22.4813 2.52253 22.4813H6.40487C7.9772 23.2969 9.73587 23.7322 11.5073 23.7401H11.5609C13.0898 23.7401 14.5728 23.4359 15.969 22.8406C17.3346 22.2558 18.5624 21.4166 19.614 20.3441C20.6682 19.2715 21.4977 18.018 22.0771 16.6202C22.6795 15.1726 22.9858 13.6333 22.9935 12.0441C23.0012 10.447 22.7 8.89717 22.1052 7.4391ZM18.2484 18.9253C16.4591 20.7453 14.0853 21.7471 11.5583 21.7471H11.5149C9.9758 21.7392 8.44686 21.3458 7.09659 20.6063L6.88218 20.4883H3.28828V16.7959L3.17342 16.5756C2.45361 15.1884 2.07074 13.6175 2.06308 12.0362C2.05287 9.42165 3.02537 6.96706 4.80956 5.11825C6.5912 3.26944 8.97267 2.2467 11.5175 2.23621H11.5609C12.8371 2.23621 14.0751 2.49058 15.2416 2.99409C16.38 3.48448 17.401 4.18991 18.279 5.09203C19.1545 5.99152 19.8437 7.04311 20.321 8.21272C20.8162 9.42428 21.0638 10.7093 21.0587 12.0362C21.0434 14.6481 20.0454 17.0949 18.2484 18.9253Z" fill="white"/>
</svg>
