<svg width="54" height="55" viewBox="0 0 54 55" fill="none" xmlns="http://www.w3.org/2000/svg">
<rect x="0.839355" y="0.75" width="52.282" height="53.297" rx="4.37264" stroke="white" stroke-width="0.5"/>
<path d="M34.821 8.70801H19.1581C12.3546 8.70801 8.29871 12.7639 8.29871 19.5674V35.2116C8.29871 42.0338 12.3546 46.0897 19.1581 46.0897H34.8023C41.6058 46.0897 45.6617 42.0338 45.6617 35.2303V19.5674C45.6804 12.7639 41.6245 8.70801 34.821 8.70801ZM26.9896 34.6509C22.9897 34.6509 19.7375 31.3987 19.7375 27.3989C19.7375 23.399 22.9897 20.1468 26.9896 20.1468C30.9894 20.1468 34.2416 23.399 34.2416 27.3989C34.2416 31.3987 30.9894 34.6509 26.9896 34.6509ZM38.0545 17.8291C37.9611 18.0534 37.8302 18.259 37.662 18.4459C37.4751 18.6142 37.2695 18.745 37.0452 18.8384C36.8209 18.9319 36.578 18.988 36.335 18.988C35.8303 18.988 35.3631 18.8011 35.0079 18.4459C34.8397 18.259 34.7089 18.0534 34.6154 17.8291C34.522 17.6049 34.4659 17.3619 34.4659 17.1189C34.4659 16.8759 34.522 16.6329 34.6154 16.4086C34.7089 16.1657 34.8397 15.9787 35.0079 15.7918C35.4378 15.362 36.092 15.1564 36.6901 15.2872C36.8209 15.3059 36.9331 15.3433 37.0452 15.3993C37.1574 15.4367 37.2695 15.4928 37.3817 15.5675C37.4751 15.6236 37.5686 15.7171 37.662 15.7918C37.8302 15.9787 37.9611 16.1657 38.0545 16.4086C38.148 16.6329 38.2041 16.8759 38.2041 17.1189C38.2041 17.3619 38.148 17.6049 38.0545 17.8291Z" fill="white"/>
</svg>
