<svg width="54" height="55" viewBox="0 0 54 55" fill="none" xmlns="http://www.w3.org/2000/svg">
<g id="Frame 55">
<rect x="0.605957" y="0.75" width="52.282" height="53.297" rx="4.37264" stroke="white" stroke-width="0.5"/>
<path id="phone" fill-rule="evenodd" clip-rule="evenodd" d="M11.1723 14.5639L14.2389 11.5058C15.0849 10.6608 16.4584 10.6608 17.3055 11.5058L21.9055 17.622C22.6077 18.6567 22.7515 19.8352 21.9055 20.6801L20.028 22.5523C21.4196 24.417 23.0904 26.45 24.971 28.3254C27.0979 30.4458 29.4633 32.3734 31.5902 33.9568L33.4048 32.1486C34.2508 31.3036 35.4325 31.4464 36.4714 32.1486L42.6047 36.7357C43.6329 37.4443 43.4518 38.9489 42.6047 39.7938L39.5381 42.8509C37.8438 44.5408 35.6414 43.9995 33.4048 42.8509C33.4048 42.8509 26.6354 39.0618 20.8399 33.2823C15.3886 27.8459 11.1723 20.6801 11.1723 20.6801C10.2932 18.2688 9.47804 16.2528 11.1723 14.5639Z" fill="white"/>
</g>
</svg>
